<svg width="3107" height="3119" viewBox="0 0 3107 3119" fill="none" xmlns="http://www.w3.org/2000/svg">
<path d="M1553.5 3113.9C1530.99 3113.9 1508.65 3113.42 1486.36 3112.47C1407.39 3109.11 1329.86 3099.83 1254.38 3085.08C609.94 2959.09 108.021 2433.79 15.475 1776.68C5.37376 1704.96 0.154297 1631.69 0.154297 1557.18C0.154297 697.427 695.616 0.453147 1553.5 0.453147C1683.78 0.453147 1810.26 16.5155 1931.18 46.7857C2387.53 161.042 2763.99 477.594 2960.11 895.859C3054.24 1096.58 3106.84 1320.72 3106.84 1557.18C3106.84 1575.03 3106.54 1592.83 3105.95 1610.54C3077.91 2445.6 2393.58 3113.9 1553.5 3113.9ZM1696.58 2817.28C1695.42 2827.45 1694.65 2837.97 1694.3 2848.83C1796.82 2923.64 1906.6 2964.14 1989.85 2964.14C2013.19 2964.14 2034.43 2960.96 2052.87 2954.46C2053.14 2954.35 2053.57 2954.31 2054.11 2954.31C2055.4 2954.31 2057.36 2954.52 2059.85 2954.73C2062.35 2954.95 2065.36 2955.16 2068.73 2955.16C2085.82 2955.16 2111.95 2949.71 2124.48 2911.14C2131.82 2888.52 2143.2 2834.85 2136.76 2768.61C2141.29 2768.75 2145.74 2768.81 2150.13 2768.81C2367.96 2768.81 2422.21 2603.66 2380.29 2536C2665.93 2302.22 2848.33 1946.45 2848.33 1548.03C2848.33 843.93 2278.8 273.142 1576.23 273.142C873.655 273.142 304.108 843.93 304.108 1548.03C304.108 2018.51 558.405 2429.47 936.772 2650.38C952.242 2697.04 995.42 2731.3 1047.29 2732.94L1111.11 2735.01C1255.17 2791.74 1412.07 2822.91 1576.23 2822.91C1616.83 2822.91 1656.94 2821.01 1696.58 2817.28Z" fill="url(#paint0_linear_201_3)"/>
<path d="M1576.23 2822.91C1412.07 2822.91 1255.17 2791.74 1111.11 2735.01L1709.68 2754.49C1703.63 2773.84 1699.14 2794.75 1696.58 2817.28C1656.94 2821.01 1616.83 2822.91 1576.23 2822.91M936.772 2650.38C558.405 2429.47 304.108 2018.51 304.108 1548.03C304.108 843.93 873.655 273.142 1576.23 273.142C2278.8 273.142 2848.33 843.93 2848.33 1548.03C2848.33 1946.45 2665.93 2302.22 2380.29 2536C2375.91 2528.94 2370.48 2522.93 2364.08 2518.3L1500.44 1637.93C1476.85 1613.88 1445.73 1601.88 1414.62 1601.88C1383.27 1601.88 1351.92 1614.07 1328.26 1638.38C991.965 1983.97 936.259 2406.08 930.72 2609.05C930.33 2623.49 932.481 2637.42 936.772 2650.38" fill="url(#paint1_linear_201_3)"/>
<path d="M1927.33 637.691L1757.44 382.562L1406.37 637.691H1927.33Z" fill="url(#paint2_linear_201_3)"/>
<path d="M1585.54 2674.12H553.989V637.691H1585.54V2674.12Z" fill="#91B3FA"/>
<path d="M1927.33 2674.12H1575.04V637.691H1927.33V2674.12Z" fill="url(#paint3_linear_201_3)"/>
<path d="M1575.04 637.691H553.989L736.386 382.562H1757.44L1575.04 637.691" fill="#7D97F4"/>
<path d="M1757.44 382.562H746.885V189.078C746.885 187.704 748.011 186.587 749.382 186.587H1754.94C1756.33 186.587 1757.44 187.704 1757.44 189.078V382.562" fill="#91B3FA"/>
<path d="M2674.02 1615.22C2654.58 1711.79 2602.44 1782.73 2557.55 1773.66C2512.65 1764.59 2492.01 1678.94 2511.45 1582.35C2530.88 1485.78 2583.03 1414.84 2627.92 1423.91C2672.81 1432.99 2693.45 1518.63 2674.02 1615.22Z" fill="url(#paint4_linear_201_3)"/>
<path d="M2494.15 1819.67C2474.71 1916.24 2422.57 1987.18 2377.68 1978.11C2332.79 1969.04 2312.16 1883.39 2331.58 1786.82C2351.01 1690.23 2403.16 1619.31 2448.05 1628.38C2492.95 1637.45 2513.59 1723.1 2494.15 1819.67" fill="url(#paint5_linear_201_3)"/>
<path d="M2314.28 2024.13C2294.86 2120.71 2242.71 2191.65 2197.81 2182.58C2152.92 2173.5 2132.29 2087.86 2151.72 1991.27C2171.15 1894.7 2223.29 1823.76 2268.19 1832.83C2313.08 1841.9 2333.72 1927.55 2314.28 2024.13Z" fill="url(#paint6_linear_201_3)"/>
<path d="M2745.42 1678.3C2652.24 1709.72 2588.55 1770.47 2603.15 1813.96C2617.77 1857.46 2705.14 1867.24 2798.31 1835.82C2891.49 1804.4 2955.18 1743.66 2940.57 1700.16C2925.96 1656.67 2838.59 1646.87 2745.42 1678.3Z" fill="url(#paint7_linear_201_3)"/>
<path d="M2565.55 1882.76C2472.38 1914.18 2408.69 1974.92 2423.3 2018.41C2437.9 2061.91 2525.27 2071.7 2618.45 2040.28C2711.62 2008.85 2775.31 1948.12 2760.71 1904.63C2746.1 1861.12 2658.73 1851.34 2565.55 1882.76" fill="url(#paint8_linear_201_3)"/>
<path d="M2385.68 2087.22C2292.52 2118.64 2228.82 2179.37 2243.43 2222.88C2258.03 2266.37 2345.4 2276.16 2438.58 2244.74C2531.76 2213.32 2595.44 2152.57 2580.84 2109.08C2566.23 2065.58 2478.86 2055.79 2385.68 2087.22" fill="url(#paint9_linear_201_3)"/>
<path d="M2880.04 1558.7C2813.83 1633.97 2736.38 1674 2707.06 1648.1C2677.75 1622.2 2707.67 1540.18 2773.89 1464.91C2840.12 1389.62 2917.57 1349.6 2946.88 1375.49C2976.2 1401.39 2946.27 1483.41 2880.04 1558.7" fill="url(#paint10_linear_201_3)"/>
<path d="M3058.45 1355.9C3058.45 1355.9 2902.35 1714.29 2707.06 1648.1L2673.17 1686.63C2673.17 1686.63 2935.33 1740.48 3058.45 1355.9Z" fill="url(#paint11_linear_201_3)"/>
<path d="M3044.34 1680.22C3049.67 1672.81 2826.76 1957.71 2552.25 1827.43L2512.76 1872.31C2512.76 1872.31 2835.44 1971.29 3044.34 1680.22Z" fill="url(#paint12_linear_201_3)"/>
<path d="M2844.32 1988C2852.26 1983.5 2491.61 2134.28 2381.16 2021.91L2346.06 2061.81C2346.06 2061.81 2502.45 2182.26 2844.32 1988" fill="url(#paint13_linear_201_3)"/>
<path d="M2953.96 1263.57C2953.96 1263.57 2618.73 1463.7 2708.71 1649.56L2674.83 1688.09C2674.83 1688.09 2588.67 1434.19 2953.96 1263.57" fill="url(#paint14_linear_201_3)"/>
<path d="M2634.65 1318.25C2641.33 1312.02 2387.22 1569.35 2550.59 1825.96L2511.1 1870.85C2511.1 1870.85 2372.69 1562.42 2634.65 1318.25Z" fill="url(#paint15_linear_201_3)"/>
<path d="M2355.03 1555.68C2358.5 1547.23 2254.42 1924.71 2379.5 2020.45L2344.4 2060.35C2344.4 2060.35 2205.56 1919.94 2355.03 1555.68Z" fill="url(#paint16_linear_201_3)"/>
<path d="M2730.54 1611.62C2579.3 1768.12 2267.39 2099.03 2108.64 2325.86C2100.96 2336.83 2114.95 2347.82 2123.98 2337.94C2270.39 2177.75 2591.88 1822.36 2745.3 1624.42C2753.61 1613.7 2739.97 1601.87 2730.54 1611.62Z" fill="url(#paint17_linear_201_3)"/>
<path d="M2150.13 2768.81C2145.74 2768.81 2141.29 2768.75 2136.76 2768.61C2129.4 2692.86 2098.73 2600.65 2012.07 2519.59C1944.23 2531.15 1763.84 2581.44 1709.68 2754.49L1111.11 2735.01L1047.29 2732.94C995.42 2731.3 952.242 2697.04 936.772 2650.38C932.481 2637.42 930.33 2623.49 930.72 2609.05C936.259 2406.08 991.965 1983.97 1328.26 1638.38C1351.92 1614.07 1383.27 1601.88 1414.62 1601.88C1445.73 1601.88 1476.85 1613.88 1500.44 1637.93L2364.08 2518.3C2370.48 2522.93 2375.91 2528.94 2380.29 2536C2422.21 2603.66 2367.96 2768.81 2150.13 2768.81" fill="url(#paint18_linear_201_3)"/>
<path d="M1402.66 1977.67C1444.26 1939.35 1508.97 1942.09 1547.2 1983.79C1585.43 2025.48 1582.69 2090.34 1541.09 2128.65C1499.49 2166.95 1434.78 2164.21 1396.55 2122.52C1358.32 2080.83 1361.06 2015.98 1402.66 1977.67Z" fill="url(#paint19_linear_201_3)"/>
<path d="M1220.58 2319.05C1274.08 2269.78 1357.32 2273.31 1406.48 2326.92C1455.64 2380.55 1452.12 2463.96 1398.62 2513.23C1345.11 2562.51 1261.89 2558.98 1212.72 2505.36C1163.56 2451.74 1167.07 2368.33 1220.58 2319.05" fill="url(#paint20_linear_201_3)"/>
<path d="M1472.47 2236.37C1493.27 2217.23 1525.62 2218.59 1544.74 2239.44C1563.85 2260.29 1562.48 2292.71 1541.69 2311.87C1520.89 2331.02 1488.53 2329.65 1469.42 2308.81C1450.3 2287.96 1451.67 2255.53 1472.47 2236.37Z" fill="url(#paint21_linear_201_3)"/>
<path d="M1665.26 2586.67C1610.91 2571.21 1579.35 2514.52 1594.77 2460.06C1610.19 2405.58 1666.75 2373.95 1721.11 2389.41C1775.45 2404.86 1807.02 2461.54 1791.6 2516.02C1776.18 2570.48 1719.61 2602.11 1665.26 2586.67Z" fill="url(#paint22_linear_201_3)"/>
<path d="M2026.84 2672.91C1956.94 2653.04 1916.34 2580.13 1936.18 2510.08C1956.01 2440.02 2028.76 2399.34 2098.66 2419.21C2168.57 2439.09 2209.16 2512 2189.32 2582.05C2169.49 2652.11 2096.75 2692.78 2026.84 2672.91Z" fill="url(#paint23_linear_201_3)"/>
<path d="M1848.61 2391.57C1821.44 2383.85 1805.66 2355.5 1813.37 2328.26C1821.08 2301.03 1849.36 2285.22 1876.53 2292.95C1903.72 2300.66 1919.5 2329.01 1911.78 2356.24C1904.07 2383.49 1875.8 2399.29 1848.61 2391.57Z" fill="url(#paint24_linear_201_3)"/>
<path d="M624.385 2804.69L375.745 2408.7L2554.83 402.254L2848.33 722.392L624.385 2804.69Z" fill="url(#paint25_linear_201_3)"/>
<path d="M1141.72 2544.75C1141.72 2544.75 1088.28 2576.7 1048.25 2531.16C1009.18 2486.74 848.376 2308.36 639.241 2554.2C633.067 2561.46 637.67 2572.68 647.155 2573.35C670.248 2574.99 706.126 2582.13 735.929 2608.31C784.178 2650.71 1031.94 2692.31 1094.75 2641.41C1157.55 2590.51 1141.72 2544.75 1141.72 2544.75" fill="#7D97F4"/>
<path d="M689.708 2526.66L689.474 2526.8L689.708 2526.66ZM692.161 2536.29C690.344 2536.29 688.594 2535.33 687.669 2533.62C686.365 2531.24 687.156 2528.28 689.396 2526.85C689.82 2526.51 690.567 2525.84 691.614 2524.89C737.066 2483.89 861.172 2402.06 1031.36 2527.03C1033.65 2528.71 1034.14 2531.91 1032.47 2534.19C1030.81 2536.48 1027.6 2536.97 1025.32 2535.3C861.183 2414.77 742.059 2493.2 698.458 2532.5C696.24 2534.51 695.482 2535.19 694.601 2535.67C693.832 2536.09 692.985 2536.29 692.161 2536.29" fill="#7D97F4"/>
<path d="M728.473 2551.82C726.99 2551.82 725.508 2551.16 724.505 2549.92C722.722 2547.72 723.056 2544.49 725.252 2542.7C726.377 2541.8 753.238 2520.32 803.56 2509.35C849.692 2499.3 925.114 2496.68 1022.53 2541.3C1025.1 2542.47 1026.23 2545.51 1025.06 2548.09C1023.89 2550.66 1020.84 2551.8 1018.28 2550.62C837.153 2467.66 732.73 2549.83 731.694 2550.67C730.746 2551.44 729.61 2551.82 728.473 2551.82" fill="#7D97F4"/>
<path d="M689.887 2737.05C684.715 2735.62 684.314 2728.35 689.251 2726.26C708.344 2718.17 742.148 2699.08 780.768 2655.77C840.552 2588.73 958.751 2536.56 1099.58 2606.14L1140.21 2606.83C1140.21 2606.83 1181.9 2873.43 689.887 2737.05" fill="#91B3FA"/>
<path d="M938.121 2758.34C916.766 2760.42 893.884 2760.92 869.631 2759.79C798.69 2756.49 740.064 2740.36 739.485 2740.2C736.765 2739.45 735.171 2736.62 735.929 2733.88C736.676 2731.16 739.507 2729.57 742.226 2730.32C744.511 2730.96 972.003 2792.74 1075.44 2693.65C1077.48 2691.71 1080.72 2691.77 1082.67 2693.82C1084.63 2695.86 1084.55 2699.11 1082.51 2701.07C1049.28 2732.9 1000.06 2752.29 938.121 2758.34" fill="#BDD0FB"/>
<path d="M929.427 2728.1C855.231 2735.34 800.217 2721.54 785.471 2717.25L785.092 2717.14C783.008 2716.66 781.37 2714.9 781.147 2712.65C780.879 2709.82 782.93 2707.32 785.75 2707.04C786.742 2706.94 787.366 2707.13 788.313 2707.4C810.916 2713.97 930.564 2743.46 1067.71 2679.82C1070.27 2678.64 1073.32 2679.74 1074.51 2682.31C1075.69 2684.88 1074.58 2687.93 1072.01 2689.13C1020.83 2712.87 971.97 2723.94 929.427 2728.1" fill="#BDD0FB"/>
<path d="M2012.07 2519.59C1983.3 2492.68 1948.41 2467.01 1906.1 2443.56C1624.91 2287.8 1349.57 2376.43 1196.52 2495.78C1043.48 2615.13 1043 2617.25 1079.97 2650.3C1118.91 2685.12 1101.84 2631.27 1166.1 2594.2C1215.56 2565.66 1403.34 2535.68 1557.79 2720.93C1599.33 2770.76 1646.02 2813.59 1694.3 2848.83C1702.3 2598.81 1933.22 2533.02 2012.07 2519.59" fill="url(#paint26_linear_201_3)"/>
<path d="M2012.07 2519.59C1933.22 2533.02 1702.3 2598.81 1694.3 2848.83C1825.57 2944.61 1968.74 2984.16 2052.87 2954.46C2053.78 2954.13 2056.28 2954.43 2059.85 2954.73C2075 2956.02 2109.47 2957.3 2124.48 2911.14C2140.22 2862.65 2174.5 2671.52 2012.07 2519.59Z" fill="#7D97F4"/>
<path d="M1882.83 2801.48C1860.45 2801.48 1842.33 2784.52 1842.33 2763.59C1842.33 2742.66 1860.45 2725.7 1882.83 2725.7C1905.19 2725.7 1923.32 2742.66 1923.32 2763.59C1923.32 2784.52 1905.19 2801.48 1882.83 2801.48ZM1873.27 2747.32C1869.26 2751.05 1866.76 2756.38 1866.76 2762.29C1866.76 2773.57 1875.89 2782.71 1887.13 2782.71C1898.39 2782.71 1907.52 2773.57 1907.52 2762.29C1907.52 2751.01 1898.39 2741.87 1887.13 2741.87C1886.38 2741.87 1885.65 2741.9 1884.92 2741.98C1884.86 2739 1882.87 2736.28 1879.85 2735.43C1879.22 2735.24 1878.58 2735.16 1877.95 2735.16C1874.9 2735.16 1872.12 2737.17 1871.25 2740.24C1870.5 2742.88 1871.37 2745.59 1873.27 2747.32Z" fill="url(#paint27_linear_201_3)"/>
<path d="M1887.13 2782.71C1875.89 2782.71 1866.76 2773.57 1866.76 2762.29C1866.76 2756.38 1869.26 2751.05 1873.27 2747.32C1874.05 2748.03 1874.98 2748.56 1876.05 2748.86C1876.69 2749.04 1877.32 2749.13 1877.96 2749.13C1880.99 2749.13 1883.79 2747.12 1884.66 2744.05C1884.86 2743.36 1884.94 2742.66 1884.92 2741.98C1885.65 2741.9 1886.38 2741.87 1887.13 2741.87C1898.39 2741.87 1907.52 2751.01 1907.52 2762.29C1907.52 2773.57 1898.39 2782.71 1887.13 2782.71ZM1887.41 2756.2C1885.74 2756.2 1884.38 2757.56 1884.38 2759.25C1884.38 2760.93 1885.74 2762.29 1887.41 2762.29C1889.08 2762.29 1890.44 2760.93 1890.44 2759.25C1890.44 2757.56 1889.08 2756.2 1887.41 2756.2Z" fill="url(#paint28_linear_201_3)"/>
<path d="M1873.15 2747.38V2747.27H1873.04V2747.15H1872.93V2747.04H1872.82V2746.93H1872.71V2746.82H1872.6V2746.71H1872.49V2746.48H1872.37V2746.37H1872.26V2746.26H1872.15V2746.04H1872.04V2745.93H1871.93V2745.7H1871.82V2745.48H1871.71V2745.26H1871.59V2745.03H1871.48V2744.81H1871.37V2744.47H1871.26V2744.14H1871.15V2743.69H1871.04V2742.91H1870.93V2741.23H1871.04V2740.56H1871.15V2740.12H1871.26V2739.78H1871.37V2739.56H1871.48V2739.22H1871.59V2739H1871.71V2738.78H1871.82V2738.67H1871.93V2738.44H1872.04V2738.22H1872.15V2738.11H1872.26V2737.88H1872.37V2737.77H1872.49V2737.66H1872.6V2737.55H1872.71V2737.44H1872.82V2737.21H1872.93V2737.1H1873.04V2736.99H1873.27V2736.88H1873.38V2736.77H1873.49V2736.65H1873.6V2736.54H1873.71V2736.43H1873.93V2736.32H1874.05V2736.21H1874.27V2736.1H1874.49V2735.98H1874.6V2735.87H1874.83V2735.76H1875.16V2735.65H1875.38V2735.54H1875.61V2735.43H1876.05V2735.31H1876.5V2735.2H1877.17V2735.09H1878.73V2735.2H1879.4V2735.31H1879.95V2735.43H1880.29V2735.54H1880.51V2735.65H1880.85V2735.76H1881.07V2735.87H1881.29V2735.98H1881.4V2736.1H1881.63V2736.21H1881.85V2736.32H1882.07V2736.43H1882.18V2736.54H1882.29V2736.65H1882.41V2736.77H1882.52V2736.88H1882.74V2736.99H1882.85V2737.1H1882.96V2737.21H1883.07V2737.33H1883.19V2737.55H1883.3V2737.66H1883.41V2737.77H1883.52V2737.88H1883.63V2738.11H1883.74V2738.22H1883.85V2738.44H1883.97V2738.55H1884.08V2738.78H1884.19V2739H1884.3V2739.22H1884.41V2739.45H1884.52V2739.78H1884.63V2740.12H1884.75V2740.56H1884.86V2741.23H1884.97V2742.02H1884.63V2742.13H1883.85V2742.24H1883.41V2742.35H1882.85V2742.46H1882.41V2742.57H1881.85V2742.69H1881.51V2742.8H1881.18V2742.91H1880.96V2743.02H1880.62V2743.13H1880.29V2743.25H1879.95V2743.36H1879.73V2743.47H1879.4V2743.58H1879.06V2743.69H1878.84V2743.8H1878.5V2743.92H1878.39V2744.03H1878.17V2744.14H1877.95V2744.25H1877.72V2744.36H1877.5V2744.47H1877.39V2744.59H1877.17V2744.7H1876.94V2744.81H1876.72V2744.92H1876.61V2745.03H1876.39V2745.14H1876.16V2745.26H1875.94V2745.37H1875.83V2745.48H1875.61V2745.59H1875.5V2745.7H1875.38V2745.81H1875.16V2745.93H1875.05V2746.04H1874.94V2746.15H1874.72V2746.26H1874.6V2746.37H1874.49V2746.48H1874.27V2746.6H1874.16V2746.71H1874.05V2746.82H1873.82V2746.93H1873.71V2747.04H1873.6V2747.15H1873.49V2747.27H1873.38V2747.38" fill="url(#paint29_linear_201_3)"/>
<path d="M1877.96 2749.13C1877.32 2749.13 1876.69 2749.04 1876.05 2748.86C1874.98 2748.56 1874.05 2748.03 1873.27 2747.32C1876.4 2744.41 1880.44 2742.47 1884.92 2741.98C1884.94 2742.66 1884.86 2743.36 1884.66 2744.05C1883.79 2747.12 1880.99 2749.13 1877.96 2749.13Z" fill="url(#paint30_linear_201_3)"/>
<path d="M1887.41 2762.29C1885.74 2762.29 1884.38 2760.93 1884.38 2759.25C1884.38 2757.57 1885.74 2756.2 1887.41 2756.2C1889.08 2756.2 1890.44 2757.57 1890.44 2759.25C1890.44 2760.93 1889.08 2762.29 1887.41 2762.29Z" fill="url(#paint31_linear_201_3)"/>
<path d="M1924.35 2906.56C1924.35 2906.56 1937.2 2933.78 2005.46 2963.59C2022.72 2962.46 2038.64 2959.47 2052.87 2954.45C2052.87 2954.45 2002.57 2955.52 1924.35 2906.56Z" fill="url(#paint32_linear_201_3)"/>
<path d="M1658.46 2588.72C1635.19 2611.37 1600.09 2658.34 1636.7 2711.5C1638.35 2713.89 1642.14 2712.46 1641.78 2709.57C1639.12 2687.64 1636.63 2636.33 1662.79 2592.17C1664.46 2589.35 1660.81 2586.43 1658.46 2588.72" fill="#7D97F4"/>
<path d="M1694.45 2609.05C1678.66 2625.44 1659.17 2657.22 1679.6 2703.25C1680.9 2706.18 1685.35 2705 1684.97 2701.82C1682.44 2680.73 1681.57 2643.98 1698.92 2612.35C1700.47 2609.51 1696.69 2606.73 1694.45 2609.05Z" fill="#7D97F4"/>
<path d="M1230.99 2365.33C1220.23 2368.1 1218.52 2382.58 1228.25 2387.96C1236.3 2392.38 1247.98 2396.12 1264.83 2396.86C1310.75 2398.88 1318.32 2427.15 1339.52 2426.17C1360.7 2425.18 1641.1 2273.72 1996.98 2505.99C1996.98 2505.99 1951.61 2380.49 1810.73 2331.55C1631.75 2269.39 1312.98 2344.23 1230.99 2365.33" fill="#7D97F4"/>
<path d="M1258.64 2754.14C1250.36 2754.01 1247.13 2743.3 1253.96 2738.6C1290.85 2713.14 1365.24 2660.5 1394.41 2630.14C1433.89 2589.05 1482.36 2536.78 1536.09 2552.04C1589.82 2567.3 1525.91 2571.59 1509.23 2595.21C1492.54 2618.83 1479.42 2711.33 1408.96 2735.92C1360.25 2752.91 1294.56 2754.67 1258.64 2754.14" fill="#7D97F4"/>
<path d="M1491.76 2568.88C1477.15 2586.24 1461.68 2602.72 1445.64 2618.69C1429.61 2634.65 1413.02 2650.09 1395.71 2664.73C1378.35 2679.29 1360.62 2693.49 1341.6 2706.01C1322.69 2718.58 1302.84 2730.03 1281.53 2738.27C1280.21 2738.78 1278.73 2738.12 1278.22 2736.8C1277.75 2735.59 1278.27 2734.24 1279.38 2733.63L1279.51 2733.56C1284.41 2730.87 1289.32 2728.23 1294.24 2725.68C1296.74 2724.46 1299.06 2722.86 1301.44 2721.42L1308.54 2717.02C1313.37 2714.25 1317.94 2711.01 1322.54 2707.87C1327.16 2704.72 1331.85 2701.72 1336.28 2698.3L1349.78 2688.38L1363 2678.04C1367.47 2674.69 1371.72 2671.02 1376.06 2667.5C1380.41 2663.97 1384.73 2660.41 1388.97 2656.75C1406.14 2642.36 1422.75 2627.25 1439.26 2612.02C1443.4 2608.24 1447.45 2604.35 1451.55 2600.51C1455.68 2596.69 1459.71 2592.79 1463.78 2588.9C1471.97 2581.22 1479.97 2573.29 1487.98 2565.43L1488.02 2565.4C1489.02 2564.41 1490.65 2564.43 1491.64 2565.44C1492.57 2566.39 1492.6 2567.89 1491.76 2568.88" fill="#BDD0FB"/>
<path d="M1479.21 2605.01C1476.57 2612.87 1473.18 2620.35 1469.54 2627.76C1465.88 2635.14 1461.82 2642.31 1457.47 2649.34C1453.01 2656.29 1448.4 2663.17 1443.26 2669.67C1440.73 2672.94 1438.08 2676.14 1435.41 2679.31C1432.66 2682.43 1429.87 2685.51 1426.94 2688.46C1421.15 2694.41 1415.06 2700.14 1408.43 2705.22C1401.85 2710.36 1394.97 2715.15 1387.54 2719.07C1380.18 2723.03 1372.42 2726.32 1364.37 2728.63C1356.31 2730.86 1348.02 2732.14 1339.75 2732.28C1339.04 2732.29 1338.46 2731.72 1338.45 2731.01C1338.44 2730.38 1338.88 2729.84 1339.48 2729.73L1339.53 2729.72C1347.45 2728.21 1355.13 2726.04 1362.52 2723.15C1369.9 2720.21 1376.88 2716.43 1383.62 2712.29C1396.98 2703.8 1409.04 2693.34 1420.03 2681.78C1431 2670.21 1441 2657.64 1450.36 2644.56C1459.75 2631.5 1468.53 2617.88 1476.87 2603.96L1476.9 2603.94C1477.26 2603.32 1478.06 2603.12 1478.66 2603.49C1479.18 2603.81 1479.4 2604.45 1479.21 2605.01" fill="#BDD0FB"/>
<path d="M508.979 2980.7C508.979 2980.7 500.782 3027.2 496.763 3073.23C495.193 3091.23 509.033 3106.84 527.038 3107.6C588.205 3110.15 719.043 3115.12 766 3113.02C773.055 3112.7 777.669 3105.46 775.05 3098.88C772.865 3093.37 768.641 3088.92 763.269 3086.44L547.142 2986.89L508.979 2980.7Z" fill="url(#paint33_linear_201_3)"/>
<path d="M502.265 2953.38L508.849 3009.01C508.849 3009.01 546.709 3026.67 572.563 3006.78L556.886 2944.79L502.265 2953.38Z" fill="url(#paint34_linear_201_3)"/>
<path d="M507.212 1907.67C504.369 1922.19 491.945 2632.52 567.709 2950.84C568.946 2956.03 566.318 2961.39 561.385 2963.41C549.765 2968.16 526.983 2975.05 499.682 2975.98C491.227 2976.26 483.646 2970.75 481.261 2962.62C459.605 2888.77 355.829 2518.72 342.29 2165.24C327.164 1770.25 342.29 2151.79 342.29 2151.79L351.162 1907.63L507.212 1907.67" fill="url(#paint35_linear_201_3)"/>
<path d="M260.364 3004.96C260.364 3004.96 247.318 3028.44 234.686 3090.82C232.405 3102.09 240.26 3112.87 251.676 3113.99C271.873 3115.98 302.967 3118.54 327.874 3118.37C339.355 3118.29 348.316 3108.27 346.931 3096.85C344.173 3074.08 335.578 3036.72 309.027 3007.6L260.364 3004.96" fill="url(#paint36_linear_201_3)"/>
<path d="M248.905 2933.42L264.292 3017.53C264.292 3017.53 279.506 3028.88 309.603 3020.66L302.258 2930.15L248.905 2933.42" fill="url(#paint37_linear_201_3)"/>
<path d="M207.338 1929.46C145.373 2304.24 220.779 2855.75 246.21 2963.69C247.769 2970.31 253.091 2975.37 259.773 2976.47C271.125 2978.36 289.814 2979.9 308.24 2974.54C314.587 2972.7 319.049 2966.95 319.307 2960.33C322.719 2873.06 316.578 2337.31 374.315 2125.58C377.241 2114.84 383.779 2105.49 392.826 2099.05L504.89 2019.21L513.481 1890.15L207.338 1929.46" fill="url(#paint38_linear_201_3)"/>
<path d="M602.182 1219.34C416.482 1216.25 211.587 1268.19 211.587 1268.19C156.236 1591.88 201.908 1965.22 201.908 1965.22C345.67 2003.01 507.841 1942.12 507.841 1942.12C531.735 1806.84 643.22 1426.08 643.22 1426.08C733.945 1414.8 714.24 1340.17 775.797 1305.49C728.84 1250.96 801.164 1277.4 791.545 1236.37C725.887 1256.82 659.459 1220.29 602.182 1219.34" fill="url(#paint39_linear_201_3)"/>
<path d="M1150.69 945.218C1132.45 923.136 1109.36 933.579 1109.36 933.579C1082.03 1049.26 938.756 1143.06 791.545 1188.91C801.164 1229.94 823.299 1299.33 870.244 1353.88C1114.54 1216.22 1150.69 945.218 1150.69 945.218" fill="white"/>
<path d="M1146.26 950.837C1148.17 956.914 1126.07 966.173 1113.06 941.298C1112.6 929.38 1105.37 878.312 1112.47 868.605C1150.33 816.889 1223.71 752.048 1223.71 752.048C1236.12 764.313 1225.9 776.365 1225.9 776.365L1190.3 813.538C1197.74 827.02 1206.83 838.402 1211.09 854.721C1214.31 867.075 1212.35 880.266 1206.12 891.514C1199.86 902.796 1191.34 917.462 1183.28 928.944C1168.02 950.67 1146.26 950.837 1146.26 950.837" fill="url(#paint40_linear_201_3)"/>
<path d="M1174.73 837.654L1142.28 865.209L1132.1 892.654L1161.02 924.812C1161.02 924.812 1170.75 870.37 1177.98 858.586C1185.21 846.802 1181.46 841.094 1174.73 837.654Z" fill="url(#paint41_linear_201_3)"/>
<path d="M282.812 1448.4L211.587 1268.19C211.587 1268.19 38.1361 1386.3 9.61133 1536.06C42.3848 1538.47 102.022 1547.01 160.396 1576.56C173.222 1505.84 282.812 1448.4 282.812 1448.4" fill="#BDD0FB"/>
<path d="M414.083 1068.24L354.997 1239.49C354.019 1242.32 355.181 1245.47 357.803 1246.93C373.909 1255.85 431.937 1281.64 501.866 1237.21C509.149 1232.58 514.108 1225.03 515.216 1216.45L534.348 1068.24H414.083" fill="url(#paint42_linear_201_3)"/>
<path d="M301.944 1248.91L372.45 1188.91L477.923 1446.98L401.008 2472.46L160.863 2479.65C159.164 2479.7 157.52 2479.05 156.322 2477.84C155.123 2476.63 154.475 2474.98 154.533 2473.28L188.06 1486.72C188.06 1486.72 188.981 1273.53 211.586 1268.19C234.194 1262.87 301.944 1248.91 301.944 1248.91" fill="#BDD0FB"/>
<path d="M477.923 1433.73L518.772 1188.91L553.735 1219.71L627.439 1218.99L643.221 1426.08L538.05 2485.76C537.885 2487.43 537.044 2488.96 535.723 2490C534.401 2491.04 532.715 2491.49 531.055 2491.25L401.009 2472.46L477.923 1433.73" fill="white"/>
<path d="M617.764 1219.27C617.764 1219.27 736.219 1211.09 804.608 1184.71C884.912 1327.75 905.787 1331.95 905.787 1331.95C905.787 1331.95 808.52 1418.43 643.22 1426.08C477.923 1433.73 617.764 1219.27 617.764 1219.27Z" fill="white"/>
<path d="M521.147 1444.88V1469.99L616.683 1464.4V1436.51L521.147 1444.88Z" fill="url(#paint43_linear_201_3)"/>
<path d="M472.234 1507.54C471.646 1507.54 471.047 1507.39 470.482 1507.09L389.447 1463.48C388.424 1462.93 387.72 1461.92 387.544 1460.76L376.58 1386.71L347.837 1381.59C346.474 1381.34 345.369 1380.36 344.958 1379.04L313.688 1277.24C313.089 1275.29 314.182 1273.22 316.132 1272.62C318.071 1272.01 320.139 1273.12 320.738 1275.06L351.351 1374.71L380.481 1379.89C382.045 1380.16 383.255 1381.41 383.49 1382.99L394.571 1457.85L473.984 1500.58C475.771 1501.54 476.452 1503.79 475.489 1505.59C474.819 1506.83 473.55 1507.54 472.234 1507.54Z" fill="#7D97F4"/>
<path d="M491.494 1482.17C491.023 1482.17 490.554 1482.05 490.119 1481.81C488.791 1481.05 488.333 1479.36 489.084 1478.02L531.459 1403.58L524.49 1361.67C524.291 1360.5 524.867 1359.33 525.912 1358.77L559.626 1340.79L550.977 1219.91C550.872 1218.38 552.012 1217.05 553.539 1216.94C555.314 1216.75 556.394 1217.99 556.501 1219.5L565.278 1342.19C565.361 1343.29 564.786 1344.33 563.822 1344.84L530.272 1362.73L537.076 1403.64C537.182 1404.26 537.064 1404.91 536.759 1405.47L493.902 1480.77C493.385 1481.67 492.458 1482.17 491.494 1482.17" fill="#7D97F4"/>
<path d="M434.604 1612.68C434.604 1612.68 239.864 1722.98 174.154 1628.8C160.511 1609.24 157.25 1589.81 160.61 1571.28C102.237 1541.74 42.5998 1533.2 9.82629 1530.77C1.22638 1575.92 5.77264 1623.94 32.2433 1672.46C147.342 1883.47 460.376 1660.8 460.376 1660.8L434.604 1612.68" fill="#BDD0FB"/>
<path d="M411.207 1752.23L517.49 1380.25C518.695 1376.03 522.29 1372.94 526.643 1372.44C545.9 1370.18 601.692 1363.86 666.124 1358.4C743.72 1351.82 833.843 1346.49 887.698 1351.03C895.355 1351.68 899.98 1359.8 896.57 1366.69C865.953 1428.78 739.986 1681.35 676.902 1764.09C674.818 1766.82 671.586 1768.43 668.142 1768.4L421.545 1766.1C414.371 1766.03 409.232 1759.14 411.207 1752.23" fill="url(#paint44_linear_201_3)"/>
<path d="M677.147 1326.15L754.208 1313.29C758.309 1312.61 761.664 1316.54 760.36 1320.49L752.737 1343.66C752.068 1345.68 750.318 1347.13 748.223 1347.42L674.071 1357.34C670.226 1357.85 667.061 1354.36 667.952 1350.58L672.667 1330.37C673.18 1328.19 674.941 1326.52 677.147 1326.15" fill="url(#paint45_linear_201_3)"/>
<path d="M619.447 1391.53L625.8 1358.4C626.435 1355.07 629.177 1352.56 632.532 1352.22L788.168 1336.4C793.407 1335.86 797.597 1340.67 796.371 1345.8L786.474 1387.1C785.683 1390.4 782.818 1392.78 779.43 1392.96L627.338 1400.62C622.389 1400.88 618.511 1396.41 619.447 1391.53Z" fill="url(#paint46_linear_201_3)"/>
<path d="M436.885 1662.35C436.885 1662.35 422.079 1601.34 428.051 1579.7C434.023 1558.05 445.594 1530.21 484.163 1536.4C522.733 1542.59 568.229 1558.88 568.229 1558.88C568.229 1558.88 565.93 1587.07 536.618 1577.97L554.794 1592.06C554.794 1592.06 552.197 1614.64 527.436 1602.58L544.343 1621.27C544.343 1621.27 533.71 1639.81 515.493 1627.92C497.276 1616.03 488.545 1669.7 436.885 1662.35" fill="url(#paint47_linear_201_3)"/>
<path d="M251.255 1668.6C232.969 1668.6 216.178 1665.88 203.38 1658.85C201.594 1657.86 200.936 1655.62 201.923 1653.83C202.899 1652.03 205.131 1651.37 206.929 1652.37C258.317 1680.64 385.934 1631.96 387.203 1631.46C387.591 1631.32 412.045 1622.8 420.728 1605.85C421.657 1604.02 423.866 1603.3 425.687 1604.24C427.497 1605.16 428.214 1607.4 427.285 1609.21C417.239 1628.87 390.834 1638.04 389.718 1638.42C385.723 1639.96 310.668 1668.6 251.255 1668.6" fill="#7D97F4"/>
<path d="M181.041 1766.9C179.056 1766.9 177.422 1765.33 177.352 1763.33C177.281 1761.28 178.88 1759.58 180.912 1759.51C328.247 1754.43 412.291 1686.82 413.125 1686.13C414.701 1684.84 417.027 1685.07 418.32 1686.65C419.612 1688.22 419.378 1690.56 417.803 1691.84C416.957 1692.55 331.138 1761.72 181.17 1766.9H181.041" fill="#7D97F4"/>
<path d="M553.344 876.77C555.264 879.439 615.201 1088.79 615.201 1088.79L495.192 1120.55L408.972 930.586C408.972 930.586 521.191 832.012 553.344 876.77Z" fill="url(#paint48_linear_201_3)"/>
<path d="M456.628 944.649C453.687 949.34 453.073 955.093 454.962 960.309L491.993 1062.37C492.556 1063.92 493.3 1065.37 494.269 1066.7C499.606 1074.04 518.476 1096.06 540.367 1075.34C559.025 1057.68 576.414 1041.71 592.668 1036.89C602.16 1034.07 612.08 1039.73 614.777 1049.28C620.327 1068.94 630.726 1108.85 634.995 1145.59C636.065 1154.81 629.79 1163.25 620.706 1165.03C596.744 1169.73 549.672 1177.52 509.661 1175.33C503.087 1174.97 497.274 1171.03 494.477 1165.06C482.167 1138.78 447.365 1065.27 434.354 1046.04C422.266 1028.17 393.522 1028.43 380.367 1029.6C375.374 1030.04 370.464 1028.4 366.74 1025.04C355.576 1014.95 337.192 991.652 363.602 963.403C370.169 956.377 369.673 945.23 362.801 938.506C350.488 926.454 338.552 906.013 358.619 880.568C378.934 854.799 405.81 857.357 423.351 863.054C431.111 865.578 439.99 862.964 444.477 856.14C446.472 853.102 449.699 850.812 454.888 850.767C464.675 850.678 472.527 843.25 472.508 833.443C472.476 816.621 478.936 796.035 507.503 786.831C559.898 769.942 593.143 820.519 596.742 858.452C600.342 896.384 542.498 911.453 508.38 909.207C483.319 907.565 464.731 931.714 456.628 944.649" fill="url(#paint49_linear_201_3)"/>
<path d="M448.409 1083.61C448.409 1083.61 439.307 1017.78 411.92 1014.81C384.532 1011.83 358.115 1034.62 385.659 1071.36C419.919 1117.05 448.409 1083.61 448.409 1083.61Z" fill="url(#paint50_linear_201_3)"/>
<defs>
<linearGradient id="paint0_linear_201_3" x1="2573.35" y1="-217.414" x2="-96.4372" y2="4407.97" gradientUnits="userSpaceOnUse">
<stop stop-color="#E1473D"/>
<stop offset="1" stop-color="#E9605A"/>
</linearGradient>
<linearGradient id="paint1_linear_201_3" x1="304.109" y1="1548.03" x2="2848.34" y2="1548.03" gradientUnits="userSpaceOnUse">
<stop stop-color="#DAE3FE"/>
<stop offset="1" stop-color="#E9EFFD"/>
</linearGradient>
<linearGradient id="paint2_linear_201_3" x1="2016.2" y1="-314.356" x2="1800.54" y2="270.792" gradientUnits="userSpaceOnUse">
<stop stop-color="#4F52FF"/>
<stop offset="1" stop-color="#4042E2"/>
</linearGradient>
<linearGradient id="paint3_linear_201_3" x1="1562.26" y1="1767.47" x2="4290.5" y2="163.45" gradientUnits="userSpaceOnUse">
<stop stop-color="#4F52FF"/>
<stop offset="1" stop-color="#4042E2"/>
</linearGradient>
<linearGradient id="paint4_linear_201_3" x1="2896.84" y1="1257.06" x2="1670.36" y2="2629.29" gradientUnits="userSpaceOnUse">
<stop stop-color="#FF928E"/>
<stop offset="1" stop-color="#FE7062"/>
</linearGradient>
<linearGradient id="paint5_linear_201_3" x1="2460.03" y1="1732.33" x2="2868.3" y2="1121.26" gradientUnits="userSpaceOnUse">
<stop stop-color="#FF928E"/>
<stop offset="1" stop-color="#FE7062"/>
</linearGradient>
<linearGradient id="paint6_linear_201_3" x1="2253.88" y1="1807.46" x2="2333.36" y2="1048.3" gradientUnits="userSpaceOnUse">
<stop stop-color="#FF928E"/>
<stop offset="1" stop-color="#FE7062"/>
</linearGradient>
<linearGradient id="paint7_linear_201_3" x1="3075.05" y1="1416.37" x2="1848.6" y2="2788.56" gradientUnits="userSpaceOnUse">
<stop stop-color="#FF928E"/>
<stop offset="1" stop-color="#FE7062"/>
</linearGradient>
<linearGradient id="paint8_linear_201_3" x1="2660.06" y1="1882.26" x2="3173.92" y2="1286.59" gradientUnits="userSpaceOnUse">
<stop stop-color="#FF928E"/>
<stop offset="1" stop-color="#FE7062"/>
</linearGradient>
<linearGradient id="paint9_linear_201_3" x1="2457.49" y1="2117.3" x2="2884.37" y2="1661.2" gradientUnits="userSpaceOnUse">
<stop stop-color="#FF928E"/>
<stop offset="1" stop-color="#FE7062"/>
</linearGradient>
<linearGradient id="paint10_linear_201_3" x1="2984.18" y1="1335.15" x2="1757.71" y2="2707.35" gradientUnits="userSpaceOnUse">
<stop stop-color="#FF928E"/>
<stop offset="1" stop-color="#FE7062"/>
</linearGradient>
<linearGradient id="paint11_linear_201_3" x1="1763.67" y1="1443.47" x2="2482.51" y2="1494.25" gradientUnits="userSpaceOnUse">
<stop stop-color="#FF928E"/>
<stop offset="1" stop-color="#FE7062"/>
</linearGradient>
<linearGradient id="paint12_linear_201_3" x1="1745.05" y1="1707.07" x2="2463.89" y2="1757.85" gradientUnits="userSpaceOnUse">
<stop stop-color="#FF928E"/>
<stop offset="1" stop-color="#FE7062"/>
</linearGradient>
<linearGradient id="paint13_linear_201_3" x1="1725.99" y1="1976.86" x2="2444.83" y2="2027.64" gradientUnits="userSpaceOnUse">
<stop stop-color="#FF928E"/>
<stop offset="1" stop-color="#FE7062"/>
</linearGradient>
<linearGradient id="paint14_linear_201_3" x1="-107.833" y1="6721.69" x2="418.647" y2="5766.32" gradientUnits="userSpaceOnUse">
<stop stop-color="#FF928E"/>
<stop offset="1" stop-color="#FE7062"/>
</linearGradient>
<linearGradient id="paint15_linear_201_3" x1="-215.811" y1="6662.18" x2="310.669" y2="5706.82" gradientUnits="userSpaceOnUse">
<stop stop-color="#FF928E"/>
<stop offset="1" stop-color="#FE7062"/>
</linearGradient>
<linearGradient id="paint16_linear_201_3" x1="-285.906" y1="6623.56" x2="240.574" y2="5668.19" gradientUnits="userSpaceOnUse">
<stop stop-color="#FF928E"/>
<stop offset="1" stop-color="#FE7062"/>
</linearGradient>
<linearGradient id="paint17_linear_201_3" x1="1729.62" y1="1925.4" x2="2448.46" y2="1976.18" gradientUnits="userSpaceOnUse">
<stop stop-color="#FF928E"/>
<stop offset="1" stop-color="#FE7062"/>
</linearGradient>
<linearGradient id="paint18_linear_201_3" x1="2072.14" y1="1860.84" x2="2612.55" y2="1170.77" gradientUnits="userSpaceOnUse">
<stop stop-color="#FF928E"/>
<stop offset="1" stop-color="#FE7062"/>
</linearGradient>
<linearGradient id="paint19_linear_201_3" x1="1354.16" y1="1562.65" x2="1565.55" y2="2439.69" gradientUnits="userSpaceOnUse">
<stop stop-color="#FF928E"/>
<stop offset="1" stop-color="#FE7062"/>
</linearGradient>
<linearGradient id="paint20_linear_201_3" x1="-18272.7" y1="12355.4" x2="-17577" y2="12003.9" gradientUnits="userSpaceOnUse">
<stop stop-color="#FF928E"/>
<stop offset="1" stop-color="#FE7062"/>
</linearGradient>
<linearGradient id="paint21_linear_201_3" x1="-18289.4" y1="12322.1" x2="-17593.7" y2="11970.6" gradientUnits="userSpaceOnUse">
<stop stop-color="#FF928E"/>
<stop offset="1" stop-color="#FE7062"/>
</linearGradient>
<linearGradient id="paint22_linear_201_3" x1="1337.88" y1="2845.42" x2="1974.72" y2="2207.64" gradientUnits="userSpaceOnUse">
<stop stop-color="#F7D845"/>
<stop offset="0.157096" stop-color="#F7D845"/>
<stop offset="1" stop-color="#D93C65"/>
</linearGradient>
<linearGradient id="paint23_linear_201_3" x1="-18066.6" y1="12763" x2="-17370.9" y2="12411.4" gradientUnits="userSpaceOnUse">
<stop stop-color="#FF928E"/>
<stop offset="1" stop-color="#FE7062"/>
</linearGradient>
<linearGradient id="paint24_linear_201_3" x1="1684.93" y1="2520.94" x2="2003.35" y2="2202.06" gradientUnits="userSpaceOnUse">
<stop stop-color="#FF928E"/>
<stop offset="1" stop-color="#FE7062"/>
</linearGradient>
<linearGradient id="paint25_linear_201_3" x1="1593.36" y1="242.671" x2="1604.71" y2="1043.42" gradientUnits="userSpaceOnUse">
<stop stop-color="#E1473D"/>
<stop offset="1" stop-color="#E9605A"/>
</linearGradient>
<linearGradient id="paint26_linear_201_3" x1="1059.74" y1="2604.48" x2="2012.07" y2="2604.48" gradientUnits="userSpaceOnUse">
<stop stop-color="#4F52FF"/>
<stop offset="1" stop-color="#4042E2"/>
</linearGradient>
<linearGradient id="paint27_linear_201_3" x1="1842.33" y1="2763.59" x2="1923.33" y2="2763.59" gradientUnits="userSpaceOnUse">
<stop stop-color="#09005D"/>
<stop offset="1" stop-color="#1A0F91"/>
</linearGradient>
<linearGradient id="paint28_linear_201_3" x1="1894.4" y1="2711.36" x2="1878.96" y2="2819.17" gradientUnits="userSpaceOnUse">
<stop stop-color="#4F52FF"/>
<stop offset="1" stop-color="#4042E2"/>
</linearGradient>
<linearGradient id="paint29_linear_201_3" x1="1842.33" y1="2763.59" x2="1923.33" y2="2763.59" gradientUnits="userSpaceOnUse">
<stop stop-color="#5A5492"/>
<stop offset="1" stop-color="#655EB5"/>
</linearGradient>
<linearGradient id="paint30_linear_201_3" x1="1894.4" y1="2711.36" x2="1878.96" y2="2819.17" gradientUnits="userSpaceOnUse">
<stop stop-color="#898BFF"/>
<stop offset="1" stop-color="#7F80EC"/>
</linearGradient>
<linearGradient id="paint31_linear_201_3" x1="1894.4" y1="2711.36" x2="1878.96" y2="2819.17" gradientUnits="userSpaceOnUse">
<stop stop-color="#898BFF"/>
<stop offset="1" stop-color="#7F80EC"/>
</linearGradient>
<linearGradient id="paint32_linear_201_3" x1="2029.88" y1="2831.24" x2="1966.32" y2="2983.46" gradientUnits="userSpaceOnUse">
<stop stop-color="#4F52FF"/>
<stop offset="1" stop-color="#4042E2"/>
</linearGradient>
<linearGradient id="paint33_linear_201_3" x1="759.156" y1="2916.43" x2="-34.1482" y2="3777.45" gradientUnits="userSpaceOnUse">
<stop stop-color="#09005D"/>
<stop offset="1" stop-color="#1A0F91"/>
</linearGradient>
<linearGradient id="paint34_linear_201_3" x1="502.265" y1="2980.51" x2="572.564" y2="2980.51" gradientUnits="userSpaceOnUse">
<stop stop-color="#FEBBBA"/>
<stop offset="1" stop-color="#FF928E"/>
</linearGradient>
<linearGradient id="paint35_linear_201_3" x1="821.471" y1="1940.77" x2="146.135" y2="2854.12" gradientUnits="userSpaceOnUse">
<stop stop-color="#09005D"/>
<stop offset="1" stop-color="#1A0F91"/>
</linearGradient>
<linearGradient id="paint36_linear_201_3" x1="581.607" y1="2752.85" x2="-211.697" y2="3613.87" gradientUnits="userSpaceOnUse">
<stop stop-color="#09005D"/>
<stop offset="1" stop-color="#1A0F91"/>
</linearGradient>
<linearGradient id="paint37_linear_201_3" x1="248.905" y1="2976.9" x2="309.602" y2="2976.9" gradientUnits="userSpaceOnUse">
<stop stop-color="#FEBBBA"/>
<stop offset="1" stop-color="#FF928E"/>
</linearGradient>
<linearGradient id="paint38_linear_201_3" x1="701.445" y1="1852.03" x2="26.1088" y2="2765.37" gradientUnits="userSpaceOnUse">
<stop stop-color="#09005D"/>
<stop offset="1" stop-color="#1A0F91"/>
</linearGradient>
<linearGradient id="paint39_linear_201_3" x1="184.2" y1="1598.4" x2="792.439" y2="1598.4" gradientUnits="userSpaceOnUse">
<stop stop-color="#09005D"/>
<stop offset="1" stop-color="#1A0F91"/>
</linearGradient>
<linearGradient id="paint40_linear_201_3" x1="1070.69" y1="1082.16" x2="828.809" y2="1631.29" gradientUnits="userSpaceOnUse">
<stop stop-color="#FEBBBA"/>
<stop offset="1" stop-color="#FF928E"/>
</linearGradient>
<linearGradient id="paint41_linear_201_3" x1="1148.97" y1="899.155" x2="1249.84" y2="744.411" gradientUnits="userSpaceOnUse">
<stop stop-color="#FEBBBA"/>
<stop offset="1" stop-color="#FF928E"/>
</linearGradient>
<linearGradient id="paint42_linear_201_3" x1="354.653" y1="1165.38" x2="534.348" y2="1165.38" gradientUnits="userSpaceOnUse">
<stop stop-color="#FEBBBA"/>
<stop offset="1" stop-color="#FF928E"/>
</linearGradient>
<linearGradient id="paint43_linear_201_3" x1="508.323" y1="1498.35" x2="844.235" y2="1257.13" gradientUnits="userSpaceOnUse">
<stop stop-color="#9CFFFB"/>
<stop offset="1" stop-color="#9BFFFA"/>
</linearGradient>
<linearGradient id="paint44_linear_201_3" x1="1894.86" y1="873.91" x2="1212.02" y2="1239.05" gradientUnits="userSpaceOnUse">
<stop stop-color="#09005D"/>
<stop offset="1" stop-color="#1A0F91"/>
</linearGradient>
<linearGradient id="paint45_linear_201_3" x1="754.353" y1="1158.71" x2="700.907" y2="1392.89" gradientUnits="userSpaceOnUse">
<stop stop-color="#4F52FF"/>
<stop offset="1" stop-color="#4042E2"/>
</linearGradient>
<linearGradient id="paint46_linear_201_3" x1="726.5" y1="1256.96" x2="700.936" y2="1410" gradientUnits="userSpaceOnUse">
<stop stop-color="#4F52FF"/>
<stop offset="1" stop-color="#4042E2"/>
</linearGradient>
<linearGradient id="paint47_linear_201_3" x1="426.632" y1="1599.29" x2="568.229" y2="1599.29" gradientUnits="userSpaceOnUse">
<stop stop-color="#FEBBBA"/>
<stop offset="1" stop-color="#FF928E"/>
</linearGradient>
<linearGradient id="paint48_linear_201_3" x1="514.482" y1="906.593" x2="504.812" y2="1320.84" gradientUnits="userSpaceOnUse">
<stop stop-color="#FEBBBA"/>
<stop offset="1" stop-color="#FF928E"/>
</linearGradient>
<linearGradient id="paint49_linear_201_3" x1="406.23" y1="1082.51" x2="648.284" y2="908.622" gradientUnits="userSpaceOnUse">
<stop stop-color="#09005D"/>
<stop offset="1" stop-color="#1A0F91"/>
</linearGradient>
<linearGradient id="paint50_linear_201_3" x1="370.747" y1="1332.84" x2="413.345" y2="1048.91" gradientUnits="userSpaceOnUse">
<stop stop-color="#FEBBBA"/>
<stop offset="1" stop-color="#FF928E"/>
</linearGradient>
</defs>
</svg>
