<?xml version="1.0" encoding="utf-8"?>
<!-- Generator: Adobe Illustrator 16.0.0, SVG Export Plug-In . SVG Version: 6.00 Build 0)  -->
<!DOCTYPE svg PUBLIC "-//W3C//DTD SVG 1.0//EN" "http://www.w3.org/TR/2001/REC-SVG-20010904/DTD/svg10.dtd">
<svg version="1.0" id="Layer_1" xmlns="http://www.w3.org/2000/svg" xmlns:xlink="http://www.w3.org/1999/xlink" x="0px" y="0px"
	 width="100px" height="100px" viewBox="0 0 100 100" enable-background="new 0 0 100 100" xml:space="preserve">
<path d="M70,26.667c-3.655,0-7.054,1.025-10,2.744v-1.937c0-3.562,1.387-6.908,3.906-9.427l-4.714-4.713
	c-3.619,3.62-5.859,8.62-5.859,14.141v1.937c-2.945-1.719-6.348-2.744-10.006-2.744c-5.912,0-11.215,2.585-14.877,6.667H20v0.003
	c-5.521,0-10,4.476-10,9.997l0,0v20.002c0,5.525,4.479,10,10,10h10.049c6.084,8.08,15.726,13.33,26.618,13.33
	C75.075,86.666,90,71.742,90,53.334v-6.667C90,35.622,81.045,26.667,70,26.667z M20,40.003V40h4.489
	c-0.739,2.088-1.162,4.326-1.162,6.667v0.003H20c-1.843,0-3.333-1.493-3.333-3.333S18.157,40.003,20,40.003z M30,66.67v-6.666
	h-6.667v6.666H20c-1.843,0-3.333-1.49-3.333-3.334l-0.007-0.002h0.007V52.725c1.048,0.371,2.158,0.611,3.333,0.611h30V66.67h-6.667
	v-6.666h-6.666v6.666H30z M83.333,53.334C83.333,68.037,71.37,80,56.667,80c-6.735,0-12.878-2.529-17.575-6.664h17.575V46.67H29.993
	v-0.01c0-7.344,5.983-13.327,13.334-13.327c3.274,0,6.426,1.214,8.883,3.418l4.45,3.994l4.456-3.994
	c2.458-2.204,5.612-3.418,8.884-3.418c7.354,0,13.333,5.979,13.333,13.333V53.334z"/>
</svg>
