<svg width="3586" height="2043" viewBox="0 0 3586 2043" fill="none" xmlns="http://www.w3.org/2000/svg">
<path d="M336.412 2038.05C336.412 2038.05 -26.3372 1873.27 141.425 1313.28C221.949 1044.51 465.1 1038.09 757.269 730.387C937.553 540.52 821.568 -39.773 1709.56 2.187C2816.91 54.507 3106.36 914.734 3111.15 953.88C3127.73 1089.83 3198.05 1173 3274.81 1251.05C3298.21 1274.85 3322.2 1298.15 3345.44 1322.33C3348.29 1325.28 3351.13 1328.27 3353.96 1331.25C3383.05 1362.07 3410.73 1394.55 3434.28 1431.37C3512.29 1553.41 3545.12 1723.35 3435.04 2039.71L336.412 2038.05" fill="#EBF3FA"/>
<path d="M1558.19 2032.37H1092.67V771.027H1558.19V2032.37Z" fill="#B6D1F8"/>
<path d="M316.007 1228.47C366.162 1113.88 562.108 1181.25 562.108 1181.25C562.108 1181.25 667.763 1410.65 706.826 1421.56C745.89 1432.48 654.79 1207.8 654.79 1207.8C733.026 1211.84 915.459 1335.69 915.459 1335.69C915.459 1335.69 866.65 1577.65 907.198 1578.61C947.747 1579.57 939.48 1362.17 939.48 1362.17C1010.77 1395.69 1067.45 1493.16 1067.45 1493.16C1133.37 1647.95 931.195 1724.61 931.195 1724.61C931.195 1724.61 916.09 1808.83 953.854 1913.64H953.867C953.867 1913.64 962.974 1933.32 970.427 1965.55L950.08 1962.52C949.227 1956.81 948.187 1951.27 946.907 1945.89L946.88 1945.8L946.827 1945.57C945.907 1942.21 944.56 1937.44 942.88 1931.63V1931.6L942.867 1931.57C938.467 1918.48 935.608 1908.85 933.919 1901.97L933.908 1901.91C920.98 1860.93 901.572 1807.16 885.232 1794.04C885.232 1794.04 887.956 1791.21 890.98 1785.36C889.147 1788.13 887.236 1791.01 885.232 1794.04C839.27 1863.48 663.267 1849.95 569.211 1815.57C475.156 1781.19 521.531 1760.13 580.4 1723.52C639.27 1686.89 746.987 1714.93 781.927 1702.33C816.866 1689.75 772.195 1665.28 706.771 1660.61C641.344 1655.93 599.355 1715.8 493.382 1710.16C387.41 1704.52 337.118 1496.11 337.118 1496.11C405.924 1529.27 541.228 1508.76 549.915 1484.63C558.602 1460.48 366.668 1434.4 337.928 1422.48C309.188 1410.56 265.851 1343.07 316.007 1228.47" fill="#DFEBFD"/>
<path d="M2844.07 571.747C2792.53 454.014 2591.21 523.24 2591.21 523.24C2591.21 523.24 2482.65 758.92 2442.52 770.147C2402.39 781.347 2495.99 550.52 2495.99 550.52C2415.6 554.667 2228.16 681.92 2228.16 681.92C2228.16 681.92 2278.31 930.507 2236.65 931.494C2194.99 932.494 2203.48 709.12 2203.48 709.12C2130.23 743.56 2072 843.707 2072 843.707C2004.28 1002.75 2212 1081.51 2212 1081.51C2212 1081.51 2227.52 1168.03 2188.71 1275.72C2188.71 1275.72 2179.33 1295.93 2171.69 1329.05L2192.6 1325.95C2193.47 1320.08 2194.55 1314.39 2195.85 1308.87L2195.88 1308.77L2195.93 1308.53C2196.88 1305.08 2198.25 1300.19 2199.99 1294.2V1294.17L2200 1294.15C2204.52 1280.69 2207.47 1270.81 2209.2 1263.73V1263.67C2222.49 1221.57 2242.43 1166.32 2259.21 1152.85C2259.21 1152.85 2256.41 1149.93 2253.31 1143.92C2255.2 1146.77 2257.16 1149.73 2259.21 1152.85C2306.44 1224.19 2487.28 1210.28 2583.91 1174.96C2680.55 1139.64 2632.91 1118 2572.41 1080.39C2511.93 1042.76 2401.25 1071.56 2365.36 1058.63C2329.47 1045.69 2375.36 1020.55 2442.57 1015.75C2509.8 1010.95 2552.95 1072.45 2661.83 1066.65C2770.71 1060.87 2822.37 846.734 2822.37 846.734C2751.68 880.8 2612.67 859.734 2603.73 834.934C2594.81 810.134 2792.01 783.334 2821.55 771.08C2851.07 758.84 2895.6 689.48 2844.07 571.747" fill="#DFEBFD"/>
<path d="M493.661 1825.61C493.661 1825.61 227.845 1836.67 169.395 1969.64C169.395 1969.64 158.633 1999.68 200.708 2004.6C242.783 2009.52 370.496 1850.47 493.661 1835.75V1825.61" fill="#82B378"/>
<path d="M493.66 1814.79C493.66 1814.79 347.578 1683.27 236.132 1729.44C124.688 1775.63 314.127 1779.07 370.67 1788.68C427.212 1798.29 493.66 1825.61 493.66 1825.61V1814.79" fill="#82B378"/>
<path d="M489.895 1846.12C489.895 1846.12 356.762 1891.15 379.353 1963.13C401.943 2035.13 489.895 1846.12 489.895 1846.12Z" fill="#82B378"/>
<path d="M1547.29 1990.6C1544.45 2015.01 1525.36 2033.56 1503.03 2033.6L574.377 2035.71C509.68 2028.19 463.523 1963.73 471.805 1892.47L477.616 1842.48C486.413 1766.81 549.829 1711.43 618.541 1719.41L1518.07 1944.33C1537.24 1949.13 1549.8 1969.01 1547.29 1990.6Z" fill="#F99746"/>
<path d="M634.975 1869L627.47 1933.59C627.239 1935.56 625.43 1937 623.45 1936.76L622.217 1936.61C620.235 1936.39 618.805 1934.59 619.034 1932.6L626.541 1868.03C626.77 1866.04 628.579 1864.61 630.559 1864.84L631.793 1864.99C633.774 1865.21 635.206 1867.03 634.975 1869" fill="#ED7D2B"/>
<path d="M692.647 1933.25L685.141 1997.83C684.911 1999.8 683.102 2001.24 681.122 2001L679.889 2000.87C677.909 2000.63 676.475 1998.83 676.706 1996.84L684.213 1932.27C684.443 1930.28 686.251 1928.85 688.233 1929.08L689.466 1929.23C691.446 1929.45 692.878 1931.27 692.647 1933.25" fill="#ED7D2B"/>
<path d="M875.225 1869L867.718 1933.59C867.487 1935.56 865.679 1937 863.698 1936.76L862.466 1936.61C860.485 1936.39 859.053 1934.59 859.282 1932.6L866.789 1868.03C867.019 1866.04 868.829 1864.61 870.809 1864.84L872.042 1864.99C874.023 1865.21 875.454 1867.03 875.225 1869" fill="#ED7D2B"/>
<path d="M900.349 1935.76L892.842 2000.33C892.611 2002.32 890.803 2003.75 888.822 2003.52L887.589 2003.37C885.609 2003.15 884.177 2001.33 884.407 1999.36L891.914 1934.77C892.143 1932.8 893.953 1931.36 895.933 1931.6L897.166 1931.73C899.146 1931.97 900.579 1933.77 900.349 1935.76Z" fill="#ED7D2B"/>
<path d="M954.799 1850.31L947.293 1914.89C947.053 1916.87 945.252 1918.29 943.266 1918.07L942.039 1917.93C940.052 1917.69 938.622 1915.89 938.853 1913.91L946.359 1849.33C946.586 1847.35 948.399 1845.92 950.372 1846.15L951.612 1846.29C953.599 1846.52 955.026 1848.33 954.799 1850.31" fill="#ED7D2B"/>
<path d="M1059.12 1874.61L1054.36 1915.57C1054.17 1917.17 1052.71 1918.33 1051.11 1918.15L1048.51 1917.84C1046.89 1917.67 1045.73 1916.2 1045.92 1914.59L1050.68 1873.64C1050.87 1872.03 1052.33 1870.87 1053.93 1871.05L1056.55 1871.36C1058.15 1871.55 1059.31 1873.01 1059.12 1874.61Z" fill="#ED7D2B"/>
<path d="M1072.29 1934.41L1067.53 1975.37C1067.35 1976.99 1065.89 1978.13 1064.28 1977.95L1061.68 1977.65C1060.08 1977.47 1058.92 1976 1059.11 1974.4L1063.87 1933.44C1064.05 1931.84 1065.52 1930.68 1067.12 1930.87L1069.72 1931.16C1071.32 1931.35 1072.48 1932.81 1072.29 1934.41Z" fill="#ED7D2B"/>
<path d="M1122.05 1872.39L1116.64 1918.95C1116.44 1920.64 1114.89 1921.88 1113.19 1921.68L1110.95 1921.41C1109.24 1921.23 1108 1919.67 1108.2 1917.96L1113.61 1871.4C1113.81 1869.71 1115.37 1868.47 1117.07 1868.67L1119.32 1868.93C1121.01 1869.12 1122.25 1870.68 1122.05 1872.39Z" fill="#ED7D2B"/>
<path d="M1181.75 1925.49L1176.33 1972.05C1176.13 1973.76 1174.59 1974.99 1172.88 1974.79L1170.64 1974.53C1168.93 1974.33 1167.71 1972.77 1167.89 1971.07L1173.31 1924.52C1173.51 1922.81 1175.07 1921.59 1176.77 1921.77L1179.01 1922.04C1180.72 1922.24 1181.95 1923.79 1181.75 1925.49Z" fill="#ED7D2B"/>
<path d="M1228.35 1902.69L1222.93 1949.25C1222.73 1950.95 1221.19 1952.19 1219.48 1951.99L1217.24 1951.72C1215.53 1951.53 1214.31 1949.97 1214.51 1948.27L1219.92 1901.71C1220.11 1900.01 1221.67 1898.77 1223.37 1898.97L1225.61 1899.24C1227.32 1899.44 1228.55 1900.99 1228.35 1902.69Z" fill="#ED7D2B"/>
<path d="M1246.92 1965.41L1241.51 2011.96C1241.32 2013.67 1239.76 2014.89 1238.05 2014.71L1235.81 2014.44C1234.11 2014.24 1232.88 2012.69 1233.08 2010.99L1238.49 1964.43C1238.68 1962.72 1240.24 1961.49 1241.95 1961.69L1244.19 1961.95C1245.89 1962.15 1247.12 1963.71 1246.92 1965.41Z" fill="#ED7D2B"/>
<path d="M1201.24 1991.32L1198.73 2012.88C1198.6 2014.08 1197.49 2014.95 1196.29 2014.81L1192.23 2014.33C1191.03 2014.2 1190.16 2013.09 1190.31 2011.89L1192.8 1990.33C1192.95 1989.13 1194.04 1988.27 1195.25 1988.4L1199.31 1988.87C1200.51 1989.01 1201.39 1990.11 1201.24 1991.32" fill="#ED7D2B"/>
<path d="M1163.07 1886.69L1160.56 1908.25C1160.41 1909.47 1159.32 1910.33 1158.12 1910.19L1154.05 1909.72C1152.85 1909.57 1151.99 1908.48 1152.12 1907.28L1154.63 1885.72C1154.76 1884.51 1155.87 1883.64 1157.07 1883.79L1161.13 1884.25C1162.33 1884.4 1163.2 1885.49 1163.07 1886.69Z" fill="#ED7D2B"/>
<path d="M1133.09 1959.85L1127.68 2006.41C1127.48 2008.12 1125.93 2009.35 1124.23 2009.15L1121.99 2008.89C1120.28 2008.69 1119.05 2007.13 1119.25 2005.44L1124.67 1958.88C1124.85 1957.17 1126.41 1955.95 1128.12 1956.15L1130.36 1956.4C1132.07 1956.6 1133.29 1958.16 1133.09 1959.85Z" fill="#ED7D2B"/>
<path d="M1013.04 1962.65L1008.28 2003.61C1008.09 2005.21 1006.63 2006.37 1005.03 2006.19L1002.41 2005.89C1000.81 2005.71 999.653 2004.24 999.84 2002.64L1004.6 1961.68C1004.79 1960.07 1006.25 1958.92 1007.85 1959.11L1010.47 1959.4C1012.07 1959.59 1013.23 1961.05 1013.04 1962.65Z" fill="#ED7D2B"/>
<path d="M592.747 1906.77L582.25 1997.07C581.981 1999.39 579.862 2001.07 577.542 2000.8C575.222 2000.52 573.546 1998.41 573.816 1996.09L584.311 1905.79C584.582 1903.47 586.699 1901.8 589.019 1902.07C591.339 1902.33 593.017 1904.45 592.747 1906.77" fill="#ED7D2B"/>
<path d="M683.296 1795.11L678.502 1836.35C678.314 1837.96 676.839 1839.13 675.223 1838.95L672.664 1838.64C671.048 1838.45 669.88 1836.97 670.066 1835.36L674.86 1794.13C675.048 1792.52 676.524 1791.35 678.14 1791.53L680.699 1791.83C682.315 1792.01 683.484 1793.49 683.296 1795.11Z" fill="#ED7D2B"/>
<path d="M783.447 1795.11L778.654 1836.35C778.467 1837.96 776.991 1839.13 775.374 1838.95L772.815 1838.64C771.199 1838.45 770.031 1836.97 770.219 1835.36L775.012 1794.13C775.199 1792.52 776.675 1791.35 778.291 1791.53L780.851 1791.83C782.467 1792.01 783.635 1793.49 783.447 1795.11Z" fill="#ED7D2B"/>
<path d="M740.203 1861.99L735.411 1903.21C735.222 1904.83 733.747 1906 732.131 1905.81L729.571 1905.52C727.955 1905.33 726.787 1903.85 726.975 1902.24L731.768 1861C731.956 1859.39 733.431 1858.21 735.048 1858.4L737.607 1858.71C739.222 1858.89 740.391 1860.37 740.203 1861.99Z" fill="#ED7D2B"/>
<path d="M532.725 1795.11L527.931 1836.35C527.743 1837.96 526.267 1839.13 524.651 1838.95L522.093 1838.64C520.477 1838.45 519.307 1836.97 519.497 1835.36L524.289 1794.13C524.477 1792.52 525.953 1791.35 527.569 1791.53L530.127 1791.83C531.743 1792.01 532.913 1793.49 532.725 1795.11" fill="#ED7D2B"/>
<path d="M532.725 1893.97L527.931 1935.2C527.743 1936.83 526.267 1937.99 524.651 1937.8L522.093 1937.51C520.477 1937.32 519.307 1935.84 519.497 1934.23L524.289 1892.99C524.477 1891.37 525.953 1890.21 527.569 1890.4L530.127 1890.69C531.743 1890.88 532.913 1892.36 532.725 1893.97" fill="#ED7D2B"/>
<path d="M577.137 1817.63L570.397 1875.6C570.178 1877.49 568.458 1878.85 566.573 1878.63L564.99 1878.44C563.106 1878.23 561.744 1876.51 561.962 1874.63L568.701 1816.65C568.921 1814.76 570.641 1813.4 572.526 1813.61L574.109 1813.8C575.993 1814.03 577.356 1815.75 577.137 1817.63" fill="#ED7D2B"/>
<path d="M622.375 1745.48L615.635 1803.45C615.416 1805.33 613.695 1806.69 611.811 1806.48L610.227 1806.29C608.343 1806.08 606.98 1804.36 607.199 1802.47L613.939 1744.49C614.157 1742.61 615.879 1741.25 617.763 1741.47L619.347 1741.65C621.231 1741.87 622.593 1743.59 622.375 1745.48Z" fill="#ED7D2B"/>
<path d="M772.539 1923.01L764.565 1991.6C764.329 1993.64 762.469 1995.11 760.432 1994.88L759.404 1994.76C757.367 1994.52 755.893 1992.67 756.131 1990.63L764.104 1922.03C764.341 1920 766.201 1918.52 768.239 1918.76L769.266 1918.88C771.304 1919.11 772.776 1920.97 772.539 1923.01" fill="#ED7D2B"/>
<path d="M839.417 1814.35L828.921 1904.64C828.651 1906.96 826.532 1908.64 824.213 1908.37C821.893 1908.09 820.216 1905.97 820.485 1903.67L830.981 1813.36C831.252 1811.04 833.371 1809.36 835.691 1809.64C838.009 1809.91 839.687 1812.03 839.417 1814.35" fill="#ED7D2B"/>
<path d="M1558.19 771.027C1558.19 815.587 1453.97 851.721 1325.43 851.721C1196.88 851.721 1092.67 815.587 1092.67 771.027C1092.67 726.467 1196.88 690.347 1325.43 690.347C1453.97 690.347 1558.19 726.467 1558.19 771.027Z" fill="#C2DBFD"/>
<path d="M2143.6 2032.37H1678.08V531.547H2143.6V2032.37Z" fill="#F2C5A0"/>
<path d="M2143.6 531.547C2143.6 576.107 2039.4 612.24 1910.84 612.24C1782.29 612.24 1678.08 576.107 1678.08 531.547C1678.08 486.987 1782.29 450.854 1910.84 450.854C2039.4 450.854 2143.6 486.987 2143.6 531.547Z" fill="#F5D1B7"/>
<path d="M2283.83 2032.37H2667.12V1145.52H2283.83V2032.37Z" fill="#D8E3B7"/>
<path d="M2667.12 1145.52C2667.12 1190.08 2581.32 1226.21 2475.48 1226.21C2369.64 1226.21 2283.84 1190.08 2283.84 1145.52C2283.84 1100.96 2369.64 1064.84 2475.48 1064.84C2581.32 1064.84 2667.12 1100.96 2667.12 1145.52Z" fill="#DCE9BF"/>
<path d="M3230.12 1532.89V1950.76C3230.12 1995.83 3193.59 2032.37 3148.51 2032.37H2473.77C2428.69 2032.37 2392.15 1995.83 2392.15 1950.76V1872.32C2411.31 1866.11 2426.76 1849.51 2426.76 1829.17C2426.76 1807.76 2415.6 1782.43 2392.15 1779.68V1537.39C2399.44 1535.44 2406.39 1531.36 2411.59 1525.72C2422.6 1513.77 2420.88 1493.81 2410.89 1480.85C2425.87 1462.77 2448.48 1451.28 2473.77 1451.28H3148.51C3193.59 1451.28 3230.12 1487.81 3230.12 1532.89" fill="#FFA412"/>
<path d="M2895.41 1516.71V1966.95C2895.41 2003.08 2866.12 2032.37 2829.99 2032.37H2392.15V1872.32C2411.31 1866.11 2426.76 1849.51 2426.76 1829.17C2426.76 1807.76 2415.6 1782.43 2392.15 1779.68V1730.27C2399.71 1729.53 2407.19 1727.15 2414.21 1723.45C2435.88 1712.01 2452.89 1688.11 2452.89 1661.79C2452.89 1630.81 2423.08 1607.84 2392.15 1605.55V1537.39C2399.44 1535.44 2406.39 1531.36 2411.59 1525.72C2422.6 1513.77 2420.88 1493.81 2410.89 1480.85C2409.65 1479.24 2408.29 1477.75 2406.81 1476.39C2402.52 1472.43 2397.44 1469.84 2392.15 1468.56V1451.28H2829.99C2866.12 1451.28 2895.41 1480.57 2895.41 1516.71" fill="#FFB93E"/>
<path d="M2649 1676.92C2649 1703.24 2631.99 1727.15 2610.32 1738.59C2601.76 1743.09 2592.48 1745.67 2583.24 1745.67C2568.25 1745.67 2554.56 1740.09 2544.15 1730.89L2544.08 1730.83C2531.83 1720 2524.11 1704.16 2524.11 1686.53C2524.11 1653.87 2550.57 1620.51 2583.24 1620.51C2615.89 1620.51 2649 1644.28 2649 1676.92" fill="#FFA412"/>
<path d="M2583.24 1745.67C2568.25 1745.67 2554.56 1740.09 2544.15 1730.89L2544.08 1730.83C2535.81 1721.73 2530.77 1709.64 2530.77 1696.39C2530.77 1668.12 2553.71 1639.21 2581.97 1639.21C2610.27 1639.21 2638.95 1659.8 2638.95 1688.07C2638.95 1708.84 2626.69 1727.88 2610.32 1738.59C2601.76 1743.09 2592.48 1745.67 2583.24 1745.67" fill="#FFAF28"/>
<path d="M2475.11 1571.48C2464.28 1561.51 2460.88 1545.45 2464.39 1532.21C2465.77 1526.97 2468.23 1522.19 2471.72 1518.39C2477.4 1512.21 2484.88 1508.69 2492.61 1507.89H2492.67C2501.76 1506.95 2511.19 1509.77 2518.45 1516.45C2531.89 1528.81 2535.59 1552.35 2523.21 1565.79C2510.85 1579.21 2488.53 1583.84 2475.11 1571.48" fill="#FFA412"/>
<path d="M2491.07 1569.36C2484.95 1569.36 2479.01 1567.43 2474.32 1563.12C2465.77 1555.25 2462.59 1543 2464.39 1532.21C2465.77 1526.97 2468.23 1522.19 2471.72 1518.39C2477.4 1512.21 2484.88 1508.69 2492.61 1507.89H2492.67C2499.53 1507.93 2506.41 1510.44 2511.87 1515.45C2523.51 1526.16 2526.71 1546.55 2516 1558.17C2509.6 1565.12 2500.13 1569.36 2491.07 1569.36" fill="#FFAF28"/>
<path d="M2766.28 1589.49C2754.37 1603.19 2734.69 1607.93 2718.25 1604.08C2711.75 1602.55 2705.76 1599.69 2700.95 1595.51C2693.15 1588.72 2688.55 1579.63 2687.29 1570.12L2687.28 1570.07C2685.8 1558.88 2688.95 1547.15 2696.93 1537.97C2711.71 1520.97 2740.59 1515.59 2757.59 1530.37C2774.57 1545.15 2781.07 1572.49 2766.28 1589.49" fill="#FFA412"/>
<path d="M2724.27 1604.48C2722.24 1604.48 2720.23 1604.35 2718.25 1604.08C2711.75 1602.55 2705.76 1599.69 2700.95 1595.51C2693.15 1588.72 2688.55 1579.63 2687.29 1570.12L2687.28 1570.07C2687.09 1561.59 2689.95 1553.01 2695.93 1546.12C2703.61 1537.29 2715.68 1532.08 2727.28 1532.08C2735.03 1532.08 2742.57 1534.41 2748.47 1539.53C2763.19 1552.33 2768.8 1576.03 2756 1590.73C2748 1599.95 2735.93 1604.48 2724.27 1604.48" fill="#FFAF28"/>
<path d="M2784.25 1804.36C2776.11 1826 2754.71 1840.39 2733.35 1843.08C2724.91 1844.13 2716.48 1843.39 2708.88 1840.52C2696.56 1835.88 2687.03 1827.05 2681.32 1816.27L2681.28 1816.19C2674.56 1803.49 2673.12 1788.08 2678.57 1773.59C2688.69 1746.72 2720.79 1727.49 2747.64 1737.6C2774.49 1747.72 2794.36 1777.51 2784.25 1804.36Z" fill="#FFA412"/>
<path d="M2726.15 1843.53C2720.17 1843.53 2714.32 1842.56 2708.88 1840.52C2696.56 1835.88 2687.03 1827.05 2681.32 1816.27L2681.28 1816.19C2677.31 1806.15 2676.89 1794.65 2681 1783.75C2688.13 1764.8 2707.93 1750.23 2727.6 1750.23C2732.05 1750.23 2736.52 1750.97 2740.81 1752.6C2764.08 1761.36 2781.28 1787.16 2772.53 1810.41C2766.09 1827.49 2750.13 1839.36 2733.35 1843.08C2730.93 1843.39 2728.53 1843.53 2726.15 1843.53" fill="#FFAF28"/>
<path d="M2702.36 1923.56C2705.29 1937.31 2699.08 1951.69 2689.04 1960.08C2685.07 1963.39 2680.52 1965.76 2675.69 1966.8C2667.87 1968.47 2660.09 1967.09 2653.63 1963.44L2653.59 1963.41C2645.99 1959.13 2640.19 1951.72 2638.21 1942.52C2634.57 1925.47 2644.67 1905.09 2661.72 1901.44C2678.77 1897.8 2698.72 1906.52 2702.36 1923.56" fill="#FFA412"/>
<path d="M2669.05 1967.51C2663.55 1967.51 2658.25 1966.05 2653.63 1963.44L2653.59 1963.41C2648.25 1959.59 2644.27 1953.84 2642.79 1946.92C2639.64 1932.16 2648.39 1914.51 2663.15 1911.36C2665.39 1910.88 2667.68 1910.64 2669.96 1910.64C2682.83 1910.64 2695.67 1917.97 2698.35 1930.51C2700.67 1941.35 2696.4 1952.67 2689.04 1960.08C2685.07 1963.39 2680.52 1965.76 2675.69 1966.8C2673.47 1967.27 2671.24 1967.51 2669.05 1967.51" fill="#FFAF28"/>
<path d="M2853.43 1616.6C2861.99 1625.39 2864.08 1638.89 2860.57 1649.76C2859.19 1654.05 2856.92 1657.92 2853.84 1660.93C2848.84 1665.8 2842.45 1668.4 2835.99 1668.71H2835.95C2828.33 1669.08 2820.61 1666.31 2814.88 1660.43C2804.25 1649.52 2802.24 1629.79 2813.13 1619.16C2824.03 1608.55 2842.81 1605.71 2853.43 1616.6Z" fill="#FFA412"/>
<path d="M2835.99 1668.71H2835.95C2830.23 1668.36 2824.61 1665.97 2820.31 1661.55C2811.11 1652.12 2809.36 1635.01 2818.8 1625.81C2824.11 1620.65 2831.56 1617.6 2838.71 1617.6C2844.28 1617.6 2849.67 1619.45 2853.69 1623.59C2860.45 1630.52 2862.56 1640.87 2860.57 1649.76C2859.19 1654.05 2856.92 1657.92 2853.84 1660.93C2848.84 1665.8 2842.45 1668.4 2835.99 1668.71Z" fill="#FFAF28"/>
<path d="M2501.84 1982.4C2478.8 1984.37 2456.59 1971.27 2444.95 1953.16C2440.36 1946 2437.41 1938.08 2436.72 1929.99C2435.6 1916.85 2439.44 1904.45 2446.72 1894.65L2446.77 1894.59C2455.33 1883.05 2468.61 1875.11 2484.04 1873.77C2512.64 1871.33 2543.84 1891.99 2546.28 1920.59C2548.73 1949.17 2530.41 1979.95 2501.84 1982.4" fill="#FFA412"/>
<path d="M2487.33 1974.6C2470.59 1974.6 2454.77 1965.71 2444.95 1953.16C2440.36 1946 2437.41 1938.08 2436.72 1929.99C2436.59 1928.49 2436.53 1927.01 2436.52 1925.56C2436.51 1914.08 2440.27 1903.35 2446.72 1894.65L2446.77 1894.59C2454.12 1886.67 2464.32 1881.35 2475.92 1880.35C2477.25 1880.24 2478.6 1880.17 2479.95 1880.17C2503.52 1880.17 2527.8 1897.47 2529.81 1920.89C2531.93 1945.65 2516.08 1972.31 2491.32 1974.43C2489.99 1974.55 2488.65 1974.6 2487.33 1974.6" fill="#FFAF28"/>
<path d="M1993.11 1353.88C1919.64 1242.89 1890.28 1003.03 2001.27 929.561C2112.25 856.107 2321.57 976.854 2395.04 1087.85C2468.51 1198.84 2438.08 1348.37 2327.09 1421.83C2216.09 1495.29 2066.57 1464.87 1993.11 1353.88" fill="white"/>
<path d="M2077.77 1289.03C2036.73 1227.04 2053.73 1143.52 2115.72 1102.49C2177.72 1061.45 2261.23 1078.45 2302.27 1140.44C2343.29 1202.44 2326.31 1285.95 2264.31 1326.99C2202.32 1368.01 2118.8 1351.03 2077.77 1289.03" fill="#F99746"/>
<path d="M1869.88 180.348H1842.19V208.081H1837.17V148.694H1873.96V152.988H1842.19V176.068H1869.88V180.348" fill="#99C3FF"/>
<path d="M1894.15 204.574C1895.91 204.574 1897.55 204.348 1899.05 203.895C1900.57 203.455 1901.93 202.828 1903.16 202.041C1904.39 201.254 1905.44 200.335 1906.33 199.295C1907.24 198.241 1907.96 197.108 1908.51 195.881V186.174H1900.13C1897.64 186.174 1895.4 186.401 1893.43 186.855C1891.45 187.308 1889.8 187.948 1888.44 188.788C1887.08 189.628 1886.04 190.655 1885.32 191.868C1884.6 193.081 1884.24 194.441 1884.24 195.961C1884.24 197.161 1884.47 198.281 1884.93 199.335C1885.39 200.375 1886.05 201.295 1886.91 202.068C1887.76 202.841 1888.8 203.455 1890.03 203.895C1891.25 204.348 1892.63 204.574 1894.15 204.574V204.574ZM1909.48 208.081C1909.21 207.321 1909 206.388 1908.84 205.281C1908.69 204.188 1908.6 203.068 1908.55 201.921C1907.81 202.868 1906.93 203.774 1905.93 204.614C1904.92 205.454 1903.8 206.188 1902.55 206.814C1901.29 207.441 1899.92 207.948 1898.43 208.321C1896.93 208.708 1895.31 208.895 1893.57 208.895C1891.43 208.895 1889.48 208.588 1887.72 207.961C1885.97 207.335 1884.47 206.455 1883.24 205.321C1882 204.201 1881.04 202.868 1880.36 201.348C1879.68 199.828 1879.35 198.174 1879.35 196.374C1879.35 194.228 1879.8 192.295 1880.73 190.561C1881.65 188.841 1882.99 187.375 1884.72 186.161C1886.47 184.948 1888.57 184.028 1891.07 183.388C1893.56 182.748 1896.35 182.428 1899.44 182.428H1908.51V177.414C1908.51 174.254 1907.53 171.775 1905.59 169.975C1903.64 168.161 1900.8 167.255 1897.08 167.255C1895.37 167.255 1893.79 167.494 1892.35 167.948C1890.91 168.414 1889.67 169.055 1888.61 169.868C1887.57 170.681 1886.76 171.628 1886.17 172.708C1885.59 173.774 1885.29 174.921 1885.29 176.148L1880.4 176.108C1880.4 174.454 1880.81 172.841 1881.63 171.295C1882.44 169.748 1883.59 168.361 1885.07 167.161C1886.55 165.948 1888.33 164.975 1890.41 164.241C1892.49 163.508 1894.8 163.135 1897.33 163.135C1899.67 163.135 1901.81 163.441 1903.79 164.041C1905.76 164.628 1907.45 165.535 1908.87 166.721C1910.28 167.921 1911.39 169.414 1912.17 171.214C1912.96 173.014 1913.35 175.095 1913.35 177.495V198.868C1913.35 199.628 1913.37 200.415 1913.44 201.228C1913.49 202.041 1913.57 202.828 1913.71 203.588C1913.83 204.361 1913.96 205.081 1914.13 205.774C1914.29 206.468 1914.48 207.081 1914.69 207.588V208.081H1909.48" fill="#99C3FF"/>
<path d="M1933.95 152.655V163.948H1943.08V167.948H1933.95V197.348C1933.95 198.908 1934.11 200.148 1934.41 201.081C1934.73 202.028 1935.15 202.761 1935.68 203.281C1936.21 203.814 1936.83 204.174 1937.52 204.348C1938.21 204.521 1938.93 204.614 1939.69 204.614C1940.43 204.614 1941.13 204.561 1941.81 204.468C1942.49 204.375 1943.11 204.281 1943.65 204.201L1943.85 208.201C1943.25 208.415 1942.48 208.588 1941.51 208.708C1940.55 208.828 1939.59 208.895 1938.64 208.895C1937.25 208.895 1935.96 208.708 1934.79 208.348C1933.6 207.974 1932.59 207.348 1931.75 206.455C1930.91 205.548 1930.24 204.361 1929.77 202.881C1929.29 201.401 1929.05 199.561 1929.05 197.348V167.948H1920.93V163.948H1929.05V152.655H1933.95" fill="#99C3FF"/>
<path d="M1979.63 196.868C1979.63 195.961 1979.47 195.068 1979.16 194.174C1978.84 193.281 1978.25 192.428 1977.4 191.628C1976.55 190.828 1975.35 190.081 1973.81 189.374C1972.28 188.681 1970.28 188.081 1967.84 187.561C1965.39 187.055 1963.21 186.454 1961.29 185.774C1959.37 185.094 1957.76 184.268 1956.44 183.308C1955.12 182.334 1954.12 181.188 1953.44 179.855C1952.76 178.521 1952.43 176.961 1952.43 175.174C1952.43 173.534 1952.79 171.988 1953.51 170.521C1954.23 169.055 1955.25 167.774 1956.6 166.681C1957.95 165.601 1959.57 164.734 1961.49 164.094C1963.41 163.454 1965.57 163.135 1967.96 163.135C1970.52 163.135 1972.8 163.468 1974.83 164.135C1976.85 164.801 1978.57 165.721 1979.97 166.908C1981.37 168.095 1982.44 169.481 1983.17 171.095C1983.91 172.695 1984.27 174.441 1984.27 176.308H1979.37C1979.37 175.174 1979.13 174.055 1978.63 172.961C1978.12 171.881 1977.39 170.921 1976.43 170.094C1975.45 169.268 1974.27 168.588 1972.84 168.068C1971.4 167.561 1969.79 167.294 1967.96 167.294C1966.05 167.294 1964.43 167.535 1963.08 167.988C1961.75 168.455 1960.64 169.055 1959.79 169.788C1958.93 170.521 1958.31 171.348 1957.91 172.255C1957.51 173.161 1957.32 174.081 1957.32 175.001C1957.32 175.988 1957.47 176.881 1957.76 177.681C1958.07 178.481 1958.64 179.228 1959.49 179.921C1960.36 180.615 1961.55 181.254 1963.08 181.841C1964.63 182.428 1966.63 183.001 1969.11 183.574C1971.77 184.201 1974.07 184.895 1976 185.655C1977.92 186.415 1979.52 187.321 1980.79 188.361C1982.05 189.415 1982.99 190.601 1983.6 191.948C1984.21 193.294 1984.52 194.854 1984.52 196.614C1984.52 198.441 1984.13 200.108 1983.37 201.614C1982.61 203.121 1981.52 204.415 1980.11 205.495C1978.69 206.561 1976.99 207.401 1974.97 208.001C1972.96 208.601 1970.72 208.895 1968.24 208.895C1965.44 208.895 1962.97 208.534 1960.83 207.814C1958.68 207.094 1956.87 206.121 1955.4 204.895C1953.93 203.681 1952.83 202.268 1952.08 200.681C1951.33 199.081 1950.96 197.441 1950.96 195.721H1955.85C1955.96 197.468 1956.4 198.908 1957.19 200.068C1957.99 201.228 1958.96 202.148 1960.13 202.841C1961.29 203.534 1962.6 204.028 1964.03 204.335C1965.45 204.628 1966.85 204.774 1968.24 204.774C1970.09 204.774 1971.72 204.561 1973.13 204.121C1974.55 203.695 1975.75 203.108 1976.71 202.374C1977.67 201.641 1978.4 200.788 1978.89 199.841C1979.37 198.894 1979.63 197.895 1979.63 196.868" fill="#99C3FF"/>
<path d="M1818.45 283.787H1768.11V263.44H1845.23V281.187L1797.19 370.547H1770.56L1818.45 283.787Z" fill="#99C3FF"/>
<path d="M1855.17 356.321L1869.4 339.334C1877.52 346.681 1885.47 350.961 1894.96 350.961C1905.97 350.961 1912.85 345.614 1912.85 335.814C1912.85 326.628 1905.05 321.281 1893.89 321.281C1887.16 321.281 1881.04 323.108 1875.99 325.254L1862.37 316.228L1865.43 263.441H1931.23V284.094H1885.63L1884.4 302.614C1888.68 301.548 1892.51 300.774 1898.48 300.774C1919.28 300.774 1935.96 310.881 1935.96 335.361C1935.96 358.001 1919.89 372.388 1895.27 372.388C1878.12 372.388 1865.59 366.268 1855.17 356.321Z" fill="#99C3FF"/>
<path d="M2039.45 347.761C2039.45 341.428 2035.95 335.921 2030.57 335.921C2024.92 335.921 2021.96 341.294 2021.96 347.761C2021.96 354.081 2025.45 359.601 2030.84 359.601C2036.49 359.601 2039.45 354.081 2039.45 347.761ZM2007.83 347.761C2007.83 334.428 2017.11 323.668 2030.84 323.668C2044.43 323.668 2053.57 334.294 2053.57 347.761C2053.57 360.948 2044.29 371.841 2030.57 371.841C2016.97 371.841 2007.83 361.214 2007.83 347.761ZM1981.59 299.574C1981.59 293.254 1978.08 287.734 1972.71 287.734C1967.05 287.734 1964.09 293.121 1964.09 299.574C1964.09 305.907 1967.59 311.428 1972.97 311.428C1978.63 311.428 1981.59 305.907 1981.59 299.574ZM2028.15 276.574H2044.16L1975.39 370.774H1959.37L2028.15 276.574ZM1949.96 299.574C1949.96 286.254 1959.24 275.494 1972.97 275.494C1986.56 275.494 1995.72 286.121 1995.72 299.574C1995.72 312.774 1986.43 323.668 1972.71 323.668C1959.11 323.668 1949.96 313.041 1949.96 299.574Z" fill="#99C3FF"/>
<path d="M1195.17 412.027H1210.39C1213.01 412.027 1215.29 411.694 1217.2 411.027C1219.09 410.361 1220.64 409.441 1221.84 408.254C1223.04 407.067 1223.92 405.681 1224.49 404.081C1225.07 402.467 1225.35 400.747 1225.35 398.894C1225.35 397.081 1225.07 395.347 1224.49 393.694C1223.92 392.054 1223.04 390.614 1221.84 389.374C1220.64 388.134 1219.09 387.161 1217.2 386.441C1215.29 385.721 1213.01 385.361 1210.39 385.361H1195.17V412.027ZM1195.17 416.267V440.454H1190.16V381.081H1210.39C1213.64 381.081 1216.52 381.507 1219.01 382.374C1221.49 383.254 1223.59 384.467 1225.27 386.027C1226.95 387.587 1228.23 389.467 1229.08 391.641C1229.93 393.814 1230.36 396.201 1230.36 398.814C1230.36 401.561 1229.93 404.014 1229.08 406.174C1228.23 408.334 1226.96 410.161 1225.29 411.654C1223.61 413.161 1221.53 414.294 1219.03 415.081C1216.52 415.881 1213.64 416.267 1210.39 416.267H1195.17" fill="#99C3FF"/>
<path d="M1260.83 400.481C1259.8 400.294 1258.69 400.201 1257.53 400.201C1255.87 400.201 1254.37 400.441 1253.04 400.934C1251.71 401.427 1250.53 402.107 1249.52 402.987C1248.49 403.881 1247.64 404.921 1246.95 406.134C1246.25 407.347 1245.71 408.681 1245.29 410.147V440.454H1240.44V396.321H1245.21L1245.29 403.347C1246.49 400.921 1248.11 399.014 1250.16 397.614C1252.21 396.214 1254.73 395.507 1257.73 395.507C1258.33 395.507 1258.95 395.561 1259.56 395.681C1260.19 395.787 1260.65 395.907 1260.95 396.041L1260.83 400.481Z" fill="#99C3FF"/>
<path d="M1269.92 419.081C1269.92 421.508 1270.25 423.814 1270.91 426.001C1271.56 428.188 1272.51 430.108 1273.76 431.748C1275.01 433.388 1276.56 434.708 1278.4 435.681C1280.25 436.654 1282.37 437.148 1284.77 437.148C1287.16 437.148 1289.28 436.654 1291.11 435.681C1292.95 434.708 1294.49 433.388 1295.73 431.748C1296.99 430.108 1297.95 428.188 1298.6 426.001C1299.24 423.814 1299.57 421.508 1299.57 419.081V417.734C1299.57 415.374 1299.24 413.094 1298.6 410.908C1297.95 408.721 1296.99 406.788 1295.73 405.134C1294.49 403.481 1292.93 402.148 1291.07 401.161C1289.2 400.161 1287.08 399.668 1284.68 399.668C1282.32 399.668 1280.23 400.161 1278.39 401.161C1276.55 402.148 1275.01 403.481 1273.76 405.134C1272.51 406.788 1271.56 408.721 1270.91 410.908C1270.25 413.094 1269.92 415.374 1269.92 417.734V419.081ZM1265.03 417.734C1265.03 414.534 1265.49 411.561 1266.44 408.841C1267.37 406.134 1268.69 403.788 1270.41 401.814C1272.12 399.841 1274.19 398.294 1276.61 397.188C1279.03 396.068 1281.72 395.508 1284.68 395.508C1287.71 395.508 1290.43 396.068 1292.87 397.188C1295.29 398.294 1297.37 399.841 1299.08 401.814C1300.8 403.788 1302.12 406.134 1303.04 408.841C1303.96 411.561 1304.43 414.534 1304.43 417.734V419.081C1304.43 422.294 1303.96 425.254 1303.04 427.974C1302.12 430.694 1300.8 433.041 1299.08 435.014C1297.37 436.974 1295.31 438.521 1292.88 439.614C1290.47 440.721 1287.76 441.268 1284.77 441.268C1281.77 441.268 1279.07 440.721 1276.65 439.614C1274.23 438.521 1272.16 436.974 1270.44 435.014C1268.71 433.041 1267.37 430.694 1266.44 427.974C1265.49 425.254 1265.03 422.294 1265.03 419.081V417.734Z" fill="#99C3FF"/>
<path d="M1322.08 385.028V396.321H1331.21V400.321H1322.08V429.721C1322.08 431.281 1322.24 432.521 1322.55 433.454C1322.87 434.401 1323.28 435.134 1323.81 435.668C1324.35 436.188 1324.96 436.548 1325.65 436.721C1326.35 436.894 1327.07 436.988 1327.84 436.988C1328.57 436.988 1329.28 436.934 1329.96 436.841C1330.64 436.748 1331.24 436.654 1331.79 436.574L1332 440.574C1331.4 440.788 1330.61 440.961 1329.65 441.081C1328.68 441.214 1327.72 441.268 1326.77 441.268C1325.39 441.268 1324.11 441.081 1322.92 440.721C1321.73 440.348 1320.72 439.721 1319.88 438.828C1319.04 437.921 1318.37 436.734 1317.91 435.254C1317.43 433.774 1317.19 431.934 1317.19 429.721V400.321H1309.08V396.321H1317.19V385.028H1322.08" fill="#99C3FF"/>
<path d="M1357.52 399.668C1355.68 399.668 1353.96 400.028 1352.39 400.734C1350.81 401.441 1349.41 402.441 1348.2 403.748C1347 405.054 1346 406.628 1345.23 408.454C1344.45 410.294 1343.93 412.321 1343.65 414.561H1370.12V414.028C1370.07 412.174 1369.77 410.388 1369.23 408.668C1368.68 406.934 1367.89 405.414 1366.84 404.081C1365.8 402.748 1364.49 401.681 1362.95 400.881C1361.4 400.068 1359.59 399.668 1357.52 399.668V399.668ZM1358.43 441.268C1355.53 441.268 1352.89 440.734 1350.47 439.654C1348.05 438.588 1345.96 437.094 1344.21 435.174C1342.45 433.254 1341.09 430.974 1340.11 428.348C1339.13 425.708 1338.64 422.814 1338.64 419.654V417.894C1338.64 414.508 1339.15 411.428 1340.17 408.668C1341.19 405.908 1342.57 403.548 1344.31 401.614C1346.05 399.668 1348.05 398.161 1350.32 397.108C1352.6 396.041 1355 395.508 1357.52 395.508C1360.32 395.508 1362.81 396.014 1364.99 397.014C1367.16 398.028 1368.99 399.428 1370.47 401.214C1371.96 403.014 1373.08 405.148 1373.84 407.628C1374.6 410.094 1374.97 412.801 1374.97 415.734V418.721H1343.49V419.654C1343.49 422.081 1343.87 424.348 1344.6 426.481C1345.33 428.614 1346.36 430.481 1347.69 432.054C1349.03 433.628 1350.61 434.868 1352.47 435.788C1354.32 436.694 1356.37 437.148 1358.63 437.148C1361.24 437.148 1363.53 436.681 1365.53 435.721C1367.53 434.774 1369.35 433.254 1370.99 431.148L1374.04 433.481C1373.31 434.534 1372.45 435.548 1371.49 436.494C1370.52 437.454 1369.4 438.281 1368.13 438.988C1366.85 439.694 1365.41 440.254 1363.8 440.654C1362.2 441.068 1360.4 441.268 1358.43 441.268" fill="#99C3FF"/>
<path d="M1389.95 440.454H1385.05V396.321H1389.95V440.454ZM1384.2 383.561C1384.2 382.641 1384.49 381.854 1385.09 381.214C1385.69 380.574 1386.51 380.254 1387.53 380.254C1388.57 380.254 1389.4 380.574 1390 381.214C1390.61 381.854 1390.92 382.641 1390.92 383.561C1390.92 384.481 1390.61 385.254 1390 385.881C1389.4 386.507 1388.57 386.827 1387.53 386.827C1386.51 386.827 1385.69 386.507 1385.09 385.881C1384.49 385.254 1384.2 384.481 1384.2 383.561Z" fill="#99C3FF"/>
<path d="M1407.85 396.321L1408.01 403.867C1408.77 402.627 1409.65 401.481 1410.64 400.441C1411.64 399.414 1412.75 398.534 1413.96 397.801C1415.19 397.054 1416.51 396.494 1417.92 396.107C1419.33 395.707 1420.83 395.507 1422.41 395.507C1424.61 395.507 1426.59 395.814 1428.32 396.414C1430.07 397.001 1431.53 397.961 1432.75 399.267C1433.96 400.574 1434.88 402.241 1435.52 404.294C1436.16 406.347 1436.48 408.827 1436.48 411.747V440.454H1431.63V411.707C1431.63 409.414 1431.37 407.521 1430.89 405.987C1430.4 404.467 1429.71 403.241 1428.81 402.321C1427.91 401.401 1426.81 400.734 1425.53 400.347C1424.24 399.947 1422.8 399.747 1421.23 399.747C1419.48 399.747 1417.91 400.041 1416.49 400.627C1415.08 401.214 1413.83 402.001 1412.75 402.974C1411.65 403.947 1410.72 405.081 1409.93 406.334C1409.13 407.601 1408.52 408.907 1408.05 410.227V440.454H1403.2V396.321H1407.85" fill="#99C3FF"/>
<path d="M1157.76 593.041L1193.96 563.361C1207.47 552.187 1212.75 546.281 1212.75 537.267C1212.75 528.107 1206.69 523.134 1198.15 523.134C1189.76 523.134 1184.01 527.801 1175.93 537.734L1159.16 524.227C1169.88 509.627 1180.28 501.694 1199.71 501.694C1222.23 501.694 1237.13 514.907 1237.13 535.561C1237.13 553.734 1227.81 562.747 1208.56 577.654L1190.85 591.321H1238.23V611.987H1157.76V593.041" fill="#99C3FF"/>
<path d="M1327.39 557.613C1327.39 537.893 1317.75 522.973 1303.47 522.973C1289.17 522.973 1279.85 537.427 1279.85 557.613C1279.85 577.507 1289.33 592.254 1303.77 592.254C1318.23 592.254 1327.39 577.653 1327.39 557.613ZM1255.31 557.613C1255.31 526.08 1274.88 501.387 1303.77 501.387C1332.51 501.387 1351.92 525.773 1351.92 557.613C1351.92 589.147 1332.51 613.854 1303.47 613.854C1274.41 613.854 1255.31 589.467 1255.31 557.613Z" fill="#99C3FF"/>
<path d="M1454.73 589.228C1454.73 582.894 1451.24 577.388 1445.85 577.388C1440.2 577.388 1437.24 582.761 1437.24 589.228C1437.24 595.548 1440.75 601.068 1446.13 601.068C1451.77 601.068 1454.73 595.548 1454.73 589.228ZM1423.12 589.228C1423.12 575.908 1432.4 565.134 1446.13 565.134C1459.72 565.134 1468.87 575.761 1468.87 589.228C1468.87 602.414 1459.59 613.308 1445.85 613.308C1432.27 613.308 1423.12 602.681 1423.12 589.228ZM1396.88 541.041C1396.88 534.721 1393.37 529.201 1387.99 529.201C1382.35 529.201 1379.39 534.588 1379.39 541.041C1379.39 547.374 1382.88 552.894 1388.27 552.894C1393.92 552.894 1396.88 547.374 1396.88 541.041ZM1443.44 518.041H1459.45L1390.68 612.241H1374.67L1443.44 518.041ZM1365.25 541.041C1365.25 527.721 1374.53 516.961 1388.27 516.961C1401.85 516.961 1411 527.588 1411 541.041C1411 554.241 1401.72 565.134 1387.99 565.134C1374.4 565.134 1365.25 554.508 1365.25 541.041Z" fill="#99C3FF"/>
<path d="M2407.45 828.321C2407.13 831.334 2406.43 834.041 2405.33 836.427C2404.25 838.827 2402.79 840.854 2400.95 842.507C2399.12 844.161 2396.92 845.441 2394.35 846.321C2391.77 847.201 2388.85 847.641 2385.6 847.641C2382.23 847.641 2379.17 847.014 2376.43 845.734C2373.68 844.454 2371.32 842.641 2369.36 840.281C2367.41 837.934 2365.89 835.121 2364.84 831.827C2363.77 828.534 2363.25 824.894 2363.25 820.894V813.427C2363.25 809.441 2363.77 805.787 2364.84 802.481C2365.89 799.174 2367.41 796.361 2369.39 794.014C2371.36 791.681 2373.75 789.867 2376.55 788.574C2379.35 787.281 2382.48 786.641 2385.96 786.641C2389.12 786.641 2391.96 787.067 2394.49 787.947C2397.01 788.814 2399.19 790.081 2400.99 791.761C2402.8 793.427 2404.25 795.467 2405.36 797.867C2406.45 800.281 2407.16 803.001 2407.45 806.054H2402.4C2402.09 803.654 2401.56 801.521 2400.77 799.627C2399.97 797.734 2398.91 796.147 2397.56 794.881C2396.23 793.601 2394.59 792.614 2392.67 791.934C2390.76 791.254 2388.52 790.921 2385.96 790.921C2383.19 790.921 2380.72 791.454 2378.55 792.534C2376.36 793.601 2374.52 795.121 2373 797.081C2371.47 799.041 2370.31 801.401 2369.51 804.147C2368.71 806.907 2368.31 809.974 2368.31 813.347V820.894C2368.31 824.161 2368.68 827.161 2369.44 829.921C2370.21 832.681 2371.32 835.067 2372.79 837.067C2374.25 839.067 2376.07 840.614 2378.21 841.734C2380.36 842.854 2382.83 843.401 2385.6 843.401C2390.84 843.401 2394.8 842.147 2397.47 839.627C2400.13 837.121 2401.77 833.347 2402.4 828.321H2407.45" fill="#99C3FF"/>
<path d="M2431.03 843.321C2432.8 843.321 2434.43 843.094 2435.95 842.654C2437.45 842.201 2438.81 841.587 2440.04 840.801C2441.27 840.014 2442.32 839.094 2443.23 838.041C2444.12 837.001 2444.84 835.867 2445.39 834.641V824.934H2437.03C2434.52 824.934 2432.28 825.161 2430.32 825.601C2428.35 826.054 2426.68 826.694 2425.32 827.547C2423.96 828.387 2422.92 829.414 2422.2 830.614C2421.48 831.827 2421.12 833.201 2421.12 834.721C2421.12 835.921 2421.35 837.041 2421.81 838.081C2422.28 839.134 2422.93 840.041 2423.79 840.814C2424.64 841.587 2425.68 842.201 2426.91 842.654C2428.13 843.094 2429.51 843.321 2431.03 843.321V843.321ZM2446.36 846.827C2446.09 846.067 2445.88 845.134 2445.73 844.041C2445.57 842.934 2445.48 841.814 2445.43 840.667C2444.69 841.627 2443.81 842.521 2442.81 843.361C2441.81 844.214 2440.68 844.947 2439.43 845.561C2438.17 846.187 2436.8 846.694 2435.31 847.081C2433.81 847.454 2432.2 847.641 2430.45 847.641C2428.31 847.641 2426.36 847.334 2424.6 846.707C2422.85 846.081 2421.36 845.214 2420.12 844.081C2418.88 842.947 2417.92 841.627 2417.24 840.107C2416.56 838.574 2416.23 836.921 2416.23 835.121C2416.23 832.974 2416.68 831.041 2417.61 829.321C2418.53 827.587 2419.87 826.121 2421.61 824.907C2423.35 823.694 2425.47 822.774 2427.95 822.134C2430.44 821.494 2433.23 821.174 2436.33 821.174H2445.39V816.161C2445.39 813.014 2444.41 810.534 2442.47 808.721C2440.52 806.907 2437.69 806.014 2433.96 806.014C2432.25 806.014 2430.67 806.241 2429.24 806.707C2427.79 807.161 2426.55 807.801 2425.51 808.614C2424.45 809.441 2423.64 810.374 2423.05 811.454C2422.47 812.534 2422.17 813.681 2422.17 814.894L2417.28 814.854C2417.28 813.201 2417.69 811.601 2418.51 810.041C2419.32 808.494 2420.47 807.121 2421.95 805.907C2423.44 804.694 2425.21 803.721 2427.29 802.987C2429.37 802.254 2431.68 801.894 2434.21 801.894C2436.55 801.894 2438.71 802.187 2440.67 802.787C2442.64 803.387 2444.33 804.281 2445.75 805.481C2447.16 806.681 2448.27 808.174 2449.05 809.961C2449.84 811.761 2450.24 813.854 2450.24 816.241V837.614C2450.24 838.374 2450.27 839.161 2450.32 839.974C2450.37 840.801 2450.47 841.587 2450.59 842.347C2450.71 843.107 2450.85 843.827 2451.01 844.534C2451.17 845.214 2451.36 845.827 2451.59 846.347V846.827H2446.36" fill="#99C3FF"/>
<path d="M2483.64 806.867C2482.6 806.68 2481.51 806.574 2480.33 806.574C2478.68 806.574 2477.17 806.827 2475.84 807.307C2474.52 807.8 2473.33 808.494 2472.32 809.374C2471.29 810.254 2470.44 811.307 2469.75 812.507C2469.05 813.72 2468.51 815.067 2468.09 816.534V846.827H2463.24V802.707H2468.01L2468.09 809.721C2469.29 807.294 2470.92 805.387 2472.97 803.987C2475.03 802.587 2477.55 801.894 2480.53 801.894C2481.13 801.894 2481.75 801.947 2482.37 802.054C2483 802.161 2483.45 802.28 2483.76 802.414L2483.64 806.867" fill="#99C3FF"/>
<path d="M2521.97 824.361C2521.97 821.801 2521.72 819.414 2521.24 817.187C2520.75 814.947 2519.97 813.027 2518.93 811.387C2517.88 809.761 2516.55 808.481 2514.92 807.534C2513.28 806.601 2511.32 806.134 2509.04 806.134C2507.2 806.134 2505.56 806.387 2504.15 806.881C2502.73 807.387 2501.51 808.067 2500.48 808.907C2499.44 809.747 2498.57 810.707 2497.87 811.801C2497.16 812.881 2496.59 814.014 2496.16 815.187V835.081C2496.67 836.254 2497.32 837.347 2498.09 838.374C2498.87 839.387 2499.79 840.281 2500.84 841.014C2501.91 841.761 2503.12 842.347 2504.49 842.774C2505.87 843.201 2507.41 843.401 2509.12 843.401C2511.32 843.401 2513.24 842.947 2514.85 842.014C2516.47 841.094 2517.81 839.814 2518.87 838.187C2519.93 836.547 2520.71 834.627 2521.21 832.414C2521.72 830.201 2521.97 827.801 2521.97 825.214V824.361ZM2526.87 825.214C2526.87 828.534 2526.49 831.561 2525.75 834.307C2525 837.054 2523.91 839.414 2522.45 841.387C2521.01 843.361 2519.25 844.894 2517.16 846.001C2515.07 847.094 2512.68 847.641 2510.03 847.641C2506.79 847.641 2504.01 847.041 2501.72 845.814C2499.43 844.587 2497.55 842.921 2496.07 840.801L2495.87 846.827H2491.31V784.187H2496.16V809.107C2497.63 806.827 2499.48 805.054 2501.75 803.787C2504 802.521 2506.73 801.894 2509.93 801.894C2512.63 801.894 2515.03 802.414 2517.12 803.481C2519.21 804.547 2520.99 806.054 2522.44 808.014C2523.89 809.961 2525 812.321 2525.75 815.081C2526.49 817.841 2526.87 820.934 2526.87 824.361V825.214" fill="#99C3FF"/>
<path d="M2564.05 835.614C2564.05 834.721 2563.91 833.827 2563.59 832.921C2563.28 832.027 2562.69 831.174 2561.84 830.374C2560.97 829.574 2559.79 828.827 2558.24 828.134C2556.71 827.441 2554.72 826.841 2552.27 826.321C2549.83 825.801 2547.64 825.201 2545.72 824.521C2543.81 823.841 2542.19 823.027 2540.87 822.054C2539.56 821.094 2538.56 819.947 2537.88 818.614C2537.2 817.281 2536.85 815.721 2536.85 813.921C2536.85 812.294 2537.21 810.734 2537.93 809.267C2538.65 807.801 2539.69 806.521 2541.04 805.441C2542.39 804.347 2544.01 803.481 2545.93 802.854C2547.84 802.214 2550 801.894 2552.4 801.894C2554.95 801.894 2557.24 802.227 2559.27 802.894C2561.29 803.561 2563 804.481 2564.4 805.667C2565.8 806.841 2566.87 808.241 2567.6 809.841C2568.33 811.454 2568.71 813.187 2568.71 815.067H2563.81C2563.81 813.921 2563.56 812.801 2563.05 811.721C2562.56 810.627 2561.83 809.681 2560.85 808.841C2559.89 808.014 2558.69 807.347 2557.27 806.827C2555.84 806.307 2554.21 806.054 2552.4 806.054C2550.49 806.054 2548.87 806.281 2547.52 806.747C2546.17 807.201 2545.07 807.801 2544.21 808.534C2543.36 809.267 2542.73 810.094 2542.35 811.001C2541.95 811.921 2541.75 812.827 2541.75 813.761C2541.75 814.734 2541.89 815.627 2542.2 816.427C2542.49 817.227 2543.08 817.974 2543.93 818.667C2544.79 819.361 2545.99 820.001 2547.52 820.587C2549.05 821.174 2551.07 821.747 2553.53 822.321C2556.2 822.947 2558.49 823.641 2560.43 824.401C2562.36 825.161 2563.96 826.067 2565.23 827.107C2566.48 828.161 2567.43 829.361 2568.04 830.707C2568.64 832.041 2568.95 833.601 2568.95 835.374C2568.95 837.187 2568.57 838.854 2567.81 840.361C2567.05 841.881 2565.96 843.161 2564.55 844.241C2563.13 845.321 2561.43 846.147 2559.41 846.747C2557.4 847.347 2555.16 847.641 2552.68 847.641C2549.88 847.641 2547.4 847.281 2545.25 846.561C2543.11 845.841 2541.31 844.881 2539.84 843.654C2538.36 842.427 2537.25 841.014 2536.51 839.427C2535.76 837.841 2535.39 836.187 2535.39 834.481H2540.28C2540.39 836.214 2540.84 837.667 2541.63 838.814C2542.41 839.974 2543.4 840.894 2544.56 841.587C2545.73 842.281 2547.03 842.787 2548.45 843.081C2549.88 843.374 2551.29 843.534 2552.68 843.534C2554.53 843.534 2556.16 843.307 2557.57 842.881C2558.99 842.441 2560.17 841.854 2561.15 841.121C2562.11 840.387 2562.84 839.547 2563.32 838.587C2563.81 837.641 2564.05 836.654 2564.05 835.614" fill="#99C3FF"/>
<path d="M2364.4 986.694L2379.51 968.667C2388.12 976.454 2396.57 981.014 2406.64 981.014C2418.35 981.014 2425.65 975.321 2425.65 964.921C2425.65 955.174 2417.36 949.494 2405.51 949.494C2398.36 949.494 2391.85 951.441 2386.51 953.721L2372.04 944.134L2375.29 888.08H2445.15V910.014H2396.73L2395.44 929.68C2399.99 928.534 2404.04 927.721 2410.37 927.721C2432.47 927.721 2450.19 938.44 2450.19 964.44C2450.19 988.48 2433.12 1003.75 2406.96 1003.75C2388.77 1003.75 2375.45 997.254 2364.4 986.694" fill="#99C3FF"/>
<path d="M2553.67 979.121C2553.67 972.801 2550.17 967.281 2544.79 967.281C2539.13 967.281 2536.17 972.667 2536.17 979.121C2536.17 985.454 2539.67 990.974 2545.05 990.974C2550.71 990.974 2553.67 985.454 2553.67 979.121ZM2522.04 979.121C2522.04 965.801 2531.33 955.041 2545.05 955.041C2558.64 955.041 2567.8 965.667 2567.8 979.121C2567.8 992.307 2558.51 1003.21 2544.79 1003.21C2531.19 1003.21 2522.04 992.587 2522.04 979.121ZM2495.8 930.947C2495.8 924.627 2492.31 919.107 2486.92 919.107C2481.27 919.107 2478.31 924.494 2478.31 930.947C2478.31 937.281 2481.8 942.787 2487.19 942.787C2492.84 942.787 2495.8 937.281 2495.8 930.947ZM2542.36 907.934H2558.37L2489.61 1002.13H2473.6L2542.36 907.934ZM2464.17 930.947C2464.17 917.627 2473.47 906.867 2487.19 906.867C2500.77 906.867 2509.93 917.494 2509.93 930.947C2509.93 944.134 2500.64 955.041 2486.92 955.041C2473.33 955.041 2464.17 944.414 2464.17 930.947Z" fill="#99C3FF"/>
<path d="M3216.19 1197.21C3181.32 1278.36 3121.67 1371.99 3040 1400.68C3033.96 1402.8 3027.53 1403.69 3021.17 1403.04C3009.55 1401.84 2998.53 1398.2 2990.77 1392.44C2980.12 1384.57 2975.57 1372.75 2983.83 1357.88C3027.48 1279.24 3022.55 1196.76 2975.8 1182.92C2942.08 1172.92 2886.61 1238 2885.51 1325.03C2885.25 1345.15 2870.53 1355.43 2851.53 1354.05C2839.83 1353.17 2826.49 1347.89 2813.95 1337.72C2812.81 1336.8 2811.83 1335.69 2811.01 1334.47C2766.03 1266.27 2759.53 1157.37 2764.89 1066.97C2771.72 952.108 2865.44 824.734 3004.79 824.614C3026.07 824.588 3059.13 821.334 3074.04 825.441C3087.25 829.094 3115.63 848.841 3133.64 858.868C3266.11 932.641 3260.75 1093.56 3216.19 1197.21" fill="#2E3552"/>
<path d="M3233.16 1069.37C3233.16 1069.99 3233.16 1070.6 3233.15 1071.17C3233.05 1116.07 3222.43 1160.85 3206.25 1198.45C3202.47 1207.24 3198.39 1216.16 3193.99 1225.15L3193.97 1225.17C3193.49 1226.24 3192.95 1227.32 3192.43 1228.4C3179.19 1255.15 3163.33 1282.2 3144.92 1306.71V1306.75C3144.12 1307.81 3143.33 1308.85 3142.52 1309.91C3135.92 1318.53 3128.97 1326.83 3121.73 1334.65C3120.04 1336.48 3118.35 1338.28 3116.61 1340.05L3116.6 1340.08C3093.28 1364.11 3066.84 1383.33 3037.44 1393.77C3031.25 1395.97 3024.65 1396.85 3018.13 1396.12C3007.24 1394.89 2996.96 1391.43 2989.68 1386.01C2979.44 1378.45 2975.07 1367.11 2983 1352.81C3024.95 1277.27 3020.2 1198.03 2975.28 1184.72C2942.89 1175.12 2889.6 1237.64 2888.55 1321.27C2888.29 1340.59 2874.16 1350.47 2855.89 1349.13C2847.32 1348.49 2837.84 1345.4 2828.47 1339.63C2821.89 1335.57 2816.48 1329.87 2812.52 1323.23C2799.43 1301.27 2790.07 1275.47 2783.63 1247.71C2786.75 1254.27 2792.39 1265.17 2800.03 1275.73C2811.57 1291.63 2823.95 1301.51 2836.41 1304.95C2841.33 1306.31 2846.24 1306.67 2851.13 1306C2865.35 1304.12 2878.63 1290.79 2890.59 1266.37C2899.4 1248.4 2904.19 1230.72 2904.23 1230.57L2901.69 1229.85C2901.49 1230.55 2882.71 1299.12 2850.77 1303.39C2811.05 1308.65 2783.65 1241.25 2783.37 1240.57L2782.17 1241.07C2779.89 1230.53 2778.04 1219.79 2776.56 1208.84C2776.43 1207.97 2776.29 1207.17 2776.19 1206.29L2776.21 1206.24C2772.27 1176.57 2770.89 1145.85 2771.16 1116.03L2771.17 1115.99C2771.16 1115.41 2771.19 1114.81 2771.19 1114.24C2771.35 1100.33 2771.88 1086.63 2772.65 1073.32C2775.28 1029.36 2790.96 984.227 2817.35 945.934L2817.36 945.907C2817.71 945.4 2818.04 944.934 2818.4 944.44C2839.11 914.827 2866.24 889.414 2898.69 871.894C2899.56 871.401 2900.49 870.934 2901.4 870.454C2910.61 865.641 2920.27 861.454 2930.32 857.974C2931.55 857.56 2932.83 857.134 2934.11 856.747C2937.88 855.494 2941.71 854.414 2945.56 853.387H2945.59C2981.52 843.974 3022.04 843.641 3066.03 855.787C3115.25 869.361 3151.67 891.654 3177.68 919.201L3177.72 919.227C3181.11 922.814 3184.33 926.507 3187.36 930.254C3188.07 931.107 3188.75 931.961 3189.41 932.827C3195.64 940.761 3201.11 949.067 3205.89 957.654C3206.2 958.214 3206.51 958.734 3206.79 959.28C3225.25 993.147 3233.03 1031.29 3233.16 1069.37" fill="#F99746"/>
<path d="M2990.77 1392.44C2978.81 1385.44 2971.33 1365.84 2980.69 1349.68C3024.01 1274.91 3019.96 1201.27 2975.04 1187.97C2942.65 1178.37 2889.6 1237.64 2888.53 1321.25C2888.29 1340.59 2875.15 1358.21 2845.79 1353.28L2855.83 1349.09C2855.83 1349.09 2872.84 1346.6 2877.89 1328.63C2882.33 1312.84 2886.79 1148.16 2977.69 1171.16C3065.48 1193.37 3016.25 1300.79 3005.32 1320.47C2994.39 1340.15 2983.33 1370.01 2990.77 1392.44" fill="#EFEFEF"/>
<path d="M2898.69 871.895C2898.71 871.895 2898.72 871.881 2898.73 871.881C2898.72 871.881 2898.71 871.895 2898.69 871.895ZM2900.49 870.921C2900.8 870.775 2901.09 870.614 2901.4 870.441V870.455C2901.11 870.615 2900.8 870.775 2900.49 870.921Z" fill="#979AA9"/>
<path d="M2988.99 1084.01L2986.37 1083.65C2986.48 1082.75 2998.68 991.587 2974.19 949.534C2947.32 903.44 2910.51 878.92 2898.69 871.894C2898.71 871.894 2898.72 871.88 2898.73 871.88C2899.31 871.547 2899.89 871.24 2900.49 870.92C2900.8 870.774 2901.11 870.614 2901.4 870.454C2914.71 878.574 2950.31 903.28 2976.48 948.214C2986.97 966.214 2992.27 994.574 2992.21 1032.47C2992.17 1060.6 2989.03 1083.79 2988.99 1084.01" fill="#FCCBA3"/>
<path d="M3206.79 959.28C3206.51 958.734 3206.2 958.214 3205.89 957.654C3206.2 958.2 3206.51 958.72 3206.79 959.28Z" fill="#979AA9"/>
<path d="M3030.25 1088L3027.79 1086.99C3027.95 1086.6 3044.68 1046.09 3074.91 1010.2C3106.41 972.774 3141.31 953.601 3177.2 953.601C3186.51 953.601 3195.88 954.881 3205.28 957.481L3205.89 957.654C3206.2 958.214 3206.51 958.734 3206.79 959.281L3206.41 960.548L3204.55 960.028C3195.08 957.414 3185.95 956.228 3177.16 956.228C3085.23 956.228 3030.83 1086.56 3030.25 1088Z" fill="#FCCBA3"/>
<path d="M2817.36 945.921V945.907C2817.4 945.854 2817.44 945.788 2817.48 945.734C2817.44 945.788 2817.4 945.841 2817.36 945.907V945.921ZM2817.81 945.254C2818.01 944.988 2818.2 944.721 2818.4 944.428H2818.41C2818.41 944.441 2818.41 944.441 2818.4 944.441C2818.2 944.721 2818.01 944.988 2817.81 945.254Z" fill="#979AA9"/>
<path d="M2975.11 1080.79C2975.07 1079.83 2971.12 984.68 2927.53 960.6C2904.39 947.8 2875.2 944.774 2852.72 944.774C2832.63 944.774 2817.89 947.187 2817.6 947.24L2817.35 945.934L2817.36 945.92V945.907C2817.4 945.84 2817.44 945.787 2817.48 945.734C2817.6 945.574 2817.71 945.414 2817.81 945.254C2818.01 944.987 2818.2 944.72 2818.4 944.44C2818.41 944.44 2818.41 944.44 2818.41 944.427C2822.45 943.84 2835.68 942.12 2852.71 942.12C2875.55 942.12 2905.23 945.214 2928.84 958.254C2947.75 968.707 2961.72 992.534 2970.37 1029.07C2976.8 1056.09 2977.73 1080.44 2977.75 1080.69L2975.11 1080.79" fill="#FCCBA3"/>
<path d="M3035.57 1097.56L3033.4 1096.03C3033.73 1095.53 3081.13 1045.71 3141.35 1038.52C3146.09 1037.96 3150.77 1037.67 3155.4 1037.67C3183.75 1037.67 3209.84 1048.31 3233.16 1069.39C3233.16 1069.61 3233.16 1069.87 3233.16 1070.11C3233.16 1070.47 3233.15 1070.83 3233.13 1071.16L3232.27 1072.13C3209.23 1050.99 3183.37 1040.33 3155.31 1040.33C3152.51 1040.33 3149.71 1040.44 3146.87 1040.65C3085.77 1045.23 3035.99 1097.04 3035.57 1097.56" fill="#FCCBA3"/>
<path d="M2963.17 1100.8C2936.4 1075.67 2899.28 1071.57 2869.45 1068.27C2844.81 1065.53 2825.35 1063.39 2820.16 1050.35C2814.24 1035.48 2819 1016.07 2831.75 1003.16C2838.16 996.667 2850.23 988.214 2869.67 988.214C2878.8 988.214 2889.56 990.081 2902.12 994.881C2966.35 1019.49 2969.45 1089.6 2969.48 1090.31L2966.83 1090.4C2966.8 1089.71 2963.72 1021.33 2901.17 997.361C2888.96 992.681 2878.53 990.881 2869.72 990.881C2851.17 990.881 2839.72 998.867 2833.63 1005.03C2821.8 1017.01 2817.16 1035.67 2822.63 1049.37C2827.23 1060.93 2845.99 1063 2869.75 1065.63C2899.97 1068.97 2937.57 1073.13 2964.99 1098.87L2963.17 1100.8" fill="#FCCBA3"/>
<path d="M3165.49 1156.45C3162.23 1156.45 3158.72 1155.87 3154.96 1154.83C3146.51 1152.49 3136.84 1147.92 3126.03 1142.81C3104.01 1132.4 3077.37 1119.8 3047.49 1119.8C3042.59 1119.8 3037.6 1120.13 3032.53 1120.88L3032.15 1118.25C3037.36 1117.49 3042.49 1117.13 3047.52 1117.13C3077.95 1117.13 3104.89 1129.88 3127.16 1140.41C3142.49 1147.65 3155.47 1153.8 3165.47 1153.8C3169.09 1153.8 3172.33 1152.99 3175.15 1151.12C3186.41 1143.69 3196.57 1129.21 3193.88 1113.63C3191.88 1101.96 3181.85 1086.2 3145.85 1077.27C3137.12 1075.09 3128.75 1074.16 3120.81 1074.16C3069.75 1074.16 3036.79 1113.04 3036.41 1113.49L3034.37 1111.8C3034.76 1111.33 3068.49 1071.51 3120.81 1071.51C3128.95 1071.51 3137.52 1072.47 3146.49 1074.69C3183.95 1084.01 3194.36 1100.73 3196.51 1113.17C3199.39 1129.93 3188.59 1145.43 3176.61 1153.33C3173.31 1155.52 3169.6 1156.45 3165.49 1156.45" fill="#FCCBA3"/>
<path d="M2771.17 1116C2771.17 1115.92 2771.17 1115.84 2771.17 1115.76C2771.17 1115.84 2771.17 1115.92 2771.17 1115.99V1116M2771.19 1114.49C2771.19 1114.41 2771.19 1114.32 2771.19 1114.24C2771.19 1114.33 2771.19 1114.41 2771.19 1114.49Z" fill="#979AA9"/>
<path d="M2772.05 1116.99L2771.16 1116.03L2771.17 1116V1115.99C2771.17 1115.92 2771.17 1115.84 2771.17 1115.76C2771.17 1115.35 2771.19 1114.92 2771.19 1114.49C2771.19 1114.41 2771.19 1114.33 2771.19 1114.24C2793.48 1094.53 2823.53 1088.05 2853.43 1088.05C2910.53 1088.05 2967.08 1111.72 2967.96 1112.08L2966.92 1114.55C2966.05 1114.16 2909.84 1090.65 2853.39 1090.65C2823.67 1090.65 2793.89 1097.16 2772.05 1116.99" fill="#FCCBA3"/>
<path d="M2776.23 1206.56C2776.21 1206.47 2776.2 1206.39 2776.19 1206.29L2776.2 1206.24H2776.21L2776.19 1206.29C2776.2 1206.39 2776.21 1206.47 2776.23 1206.56" fill="#979AA9"/>
<path d="M2777.77 1209.35L2776.56 1208.84C2776.45 1208.07 2776.33 1207.35 2776.23 1206.56C2776.21 1206.47 2776.2 1206.39 2776.19 1206.29L2776.21 1206.24H2776.2C2809.71 1129.69 2894.31 1119.03 2938.85 1119.03C2955.75 1119.03 2966.88 1120.56 2967.28 1120.61L2966.89 1123.23C2966.51 1123.17 2955.49 1121.67 2938.8 1121.67C2894.48 1121.67 2810.05 1132.33 2777.77 1209.35" fill="#FCCBA3"/>
<path d="M2848.23 1245.96C2848.07 1245.96 2847.91 1245.95 2847.75 1245.95C2846.55 1245.91 2845.37 1245.73 2844.23 1245.41C2839.28 1244.05 2834.95 1240.17 2832.23 1234.53C2826.84 1223.37 2827.04 1203.49 2843.72 1181.15C2877.71 1135.61 2967.43 1134.83 2973 1134.83C2973.15 1134.83 2973.23 1134.83 2973.25 1134.83L2973.23 1137.48C2973.2 1137.48 2973.12 1137.48 2972.99 1137.48C2967.72 1137.48 2879.09 1138.2 2845.84 1182.73C2829.87 1204.13 2829.57 1222.92 2834.61 1233.37C2837.57 1239.52 2842.39 1243.12 2847.83 1243.29C2847.96 1243.31 2848.09 1243.31 2848.23 1243.31C2854.75 1243.31 2861.08 1238.4 2866.09 1229.45C2886.31 1193.35 2941.17 1143.03 2984.67 1143.03C2984.69 1143.03 2984.71 1143.03 2984.73 1143.03V1145.68C2984.71 1145.68 2984.69 1145.68 2984.67 1145.68C2942.15 1145.68 2888.31 1195.21 2868.41 1230.75C2862.91 1240.57 2855.76 1245.96 2848.23 1245.96" fill="#FCCBA3"/>
<path d="M3189.41 932.827C3189.37 932.774 3189.33 932.72 3189.29 932.667C3189.33 932.72 3189.37 932.774 3189.41 932.827ZM3188.29 931.4C3187.99 931.027 3187.68 930.641 3187.36 930.254H3187.37C3187.68 930.641 3187.99 931.027 3188.29 931.4ZM2930.32 857.987C2931.03 857.734 2931.76 857.494 2932.49 857.254C2931.76 857.494 2931.03 857.734 2930.32 857.974C2930.32 857.987 2930.32 857.987 2930.32 857.987Z" fill="#979AA9"/>
<path d="M3059.33 972.934C3054.6 972.934 3049.99 972.32 3045.53 971.094C3044.41 970.787 3043.31 970.427 3042.2 970.04C3024.43 963.76 3010.16 947.854 2999.83 922.72C2983.61 883.467 2946.05 864.44 2930.32 857.987C2930.32 857.987 2930.32 857.987 2930.32 857.974C2931.03 857.734 2931.76 857.494 2932.49 857.254C2933.03 857.08 2933.57 856.907 2934.12 856.747C2951.53 864.334 2986.63 883.814 3002.25 921.707C3012.32 946.107 3026.05 961.534 3043.08 967.534C3048.27 969.347 3053.71 970.267 3059.35 970.267C3069.77 970.267 3080.84 967.16 3092.09 961.027C3097.56 958.027 3103.13 954.8 3108.53 951.667C3130.57 938.907 3151.68 926.667 3170.8 926.667C3176.51 926.667 3182.04 927.76 3187.36 930.254C3187.68 930.64 3187.99 931.027 3188.29 931.4C3188.63 931.827 3188.96 932.24 3189.29 932.667C3189.33 932.72 3189.37 932.774 3189.41 932.827L3188.76 933.974C3183.08 930.747 3177.08 929.36 3170.8 929.36C3152.32 929.36 3131.55 941.387 3109.85 953.96C3104.45 957.094 3098.85 960.334 3093.35 963.347C3081.69 969.72 3070.19 972.934 3059.33 972.934" fill="#FCCBA3"/>
<path d="M3192.43 1228.4C3192.45 1228.33 3192.48 1228.28 3192.51 1228.21C3192.48 1228.28 3192.45 1228.35 3192.43 1228.4Z" fill="#979AA9"/>
<path d="M3192.43 1228.4C3163.47 1150.81 3029.48 1131.61 3028.09 1131.43L3028.47 1128.77C3029.83 1128.96 3162.69 1147.99 3193.99 1225.15L3193.97 1225.17C3193.52 1226.19 3193 1227.19 3192.51 1228.21C3192.48 1228.28 3192.45 1228.33 3192.43 1228.4" fill="#FCCBA3"/>
<path d="M3143.81 1308.21C3144.05 1307.89 3144.31 1307.57 3144.55 1307.25C3144.31 1307.57 3144.07 1307.89 3143.81 1308.21ZM3144.92 1306.73V1306.71H3144.93L3144.92 1306.73Z" fill="#979AA9"/>
<path d="M3142.51 1309.89L3141.88 1309.8C3158.07 1196 3025 1139.45 3023.64 1138.89L3024.68 1136.45C3026 1137.01 3158.29 1193.19 3144.93 1306.71H3144.92V1306.73C3144.8 1306.91 3144.67 1307.08 3144.55 1307.25C3144.31 1307.57 3144.05 1307.89 3143.81 1308.21C3143.39 1308.77 3142.95 1309.33 3142.51 1309.89" fill="#FCCBA3"/>
<path d="M3070.57 1307.25C3069.11 1307.25 3067.68 1307.07 3066.31 1306.69C3065.16 1306.37 3064.05 1305.93 3063.01 1305.35C3056.28 1301.59 3052.75 1293.2 3053.07 1281.69C3054.21 1240.96 3033.37 1170.79 2996.83 1149.01L2998.19 1146.73C3035.56 1169 3056.88 1240.39 3055.72 1281.77C3055.43 1292.23 3058.47 1299.79 3064.29 1303.03C3066.24 1304.11 3068.39 1304.64 3070.63 1304.64C3073.88 1304.64 3077.36 1303.51 3080.73 1301.28C3090.43 1294.89 3099.8 1278.61 3097.07 1252.05C3091.21 1195.35 3011.71 1148.35 3010.91 1147.88L3012.24 1145.59C3013.05 1146.07 3093.71 1193.73 3099.69 1251.79C3102.56 1279.52 3092.53 1296.68 3082.19 1303.49C3078.41 1305.99 3074.39 1307.25 3070.57 1307.25" fill="#FCCBA3"/>
<path d="M3116.6 1340.09C3116.6 1340.08 3116.6 1340.08 3116.6 1340.08L3116.61 1340.05L3116.6 1340.08C3116.6 1340.08 3116.6 1340.08 3116.6 1340.09Z" fill="#979AA9"/>
<path d="M3054.93 1363.4C3050.49 1363.4 3046.33 1362.87 3042.47 1361.8C3037.59 1360.45 3033.19 1358.25 3029.33 1355.17C3018.07 1346.25 3013.52 1328.01 3015.75 1300.92C3015.87 1299.53 3016 1298.16 3016.13 1296.8C3017.65 1292.92 3019.16 1288.72 3020.59 1284.31C3016.88 1306.35 3014.52 1340.03 3030.97 1353.09C3037.92 1358.6 3046.16 1360.76 3054.8 1360.76C3085.23 1360.76 3120.56 1334.08 3121.03 1333.73L3121.73 1334.64C3120.04 1336.49 3118.33 1338.28 3116.61 1340.05L3116.6 1340.08C3116.6 1340.08 3116.6 1340.08 3116.6 1340.09C3110.52 1344.16 3100.35 1350.4 3088.72 1355.39C3076.24 1360.72 3064.88 1363.4 3054.93 1363.4" fill="#FCCBA3"/>
<path d="M3016.13 1296.8C3018.09 1278.6 3022.37 1263.32 3022.41 1263.17L3024.97 1263.88C3024.91 1264.12 3022.55 1272.56 3020.59 1284.31C3019.16 1288.72 3017.65 1292.92 3016.13 1296.8" fill="#F7F7F7"/>
<path d="M3177.68 919.201C3156.31 901.241 3110.97 894.441 3085.36 912.467C3067.35 925.161 3016.09 1078.25 3016.09 1078.25L3001.72 1074.28C3001.72 1074.28 3042.12 927.014 3017.03 890.867C2999.48 865.601 2947.28 853.614 2945.59 853.387C2981.52 843.974 3022.03 843.641 3066.03 855.787C3115.25 869.374 3151.67 891.654 3177.68 919.201Z" fill="#FCCBA2"/>
<path d="M2954.44 1107.45C2961.08 1083.39 2985.96 1069.27 3010.03 1075.91C3034.08 1082.55 3048.2 1107.43 3041.56 1131.49C3034.93 1155.55 3010.04 1169.67 2985.99 1163.03C2961.93 1156.39 2947.8 1131.51 2954.44 1107.45" fill="white"/>
<path d="M2964.52 1110.23C2969.63 1091.73 2988.75 1080.88 3007.24 1085.99C3025.73 1091.08 3036.6 1110.21 3031.49 1128.71C3026.39 1147.2 3007.25 1158.05 2988.76 1152.95C2970.27 1147.85 2959.41 1128.72 2964.52 1110.23" fill="#EFEFEF"/>
<path d="M3099.31 2032.16H2887.16V1806.43H3099.44C3106.87 1806.43 3112.88 1812.44 3112.88 1819.87V2018.59C3112.88 2026.08 3106.8 2032.16 3099.31 2032.16" fill="#EBF3FA"/>
<path d="M2960.07 2032.16H2760.77C2752.93 2032.16 2746.57 2025.8 2746.57 2017.96V1821.93C2746.57 1813.37 2753.52 1806.43 2762.08 1806.43H2959.15C2966.41 1806.43 2972.31 1812.32 2972.31 1819.59V2019.92C2972.31 2026.68 2966.83 2032.16 2960.07 2032.16" fill="white"/>
<path d="M2821.75 1870.72C2821.75 1869.67 2821.57 1868.73 2821.23 1867.92C2820.89 1867.09 2820.31 1866.35 2819.49 1865.67C2818.67 1864.99 2817.59 1864.37 2816.25 1863.81C2814.92 1863.24 2813.24 1862.68 2811.24 1862.12C2809.29 1861.57 2807.56 1860.97 2806 1860.33C2804.45 1859.69 2803.15 1858.95 2802.05 1858.08C2800.97 1857.21 2800.15 1856.23 2799.55 1855.09C2798.96 1853.97 2798.67 1852.65 2798.67 1851.13C2798.67 1849.65 2798.99 1848.31 2799.61 1847.09C2800.25 1845.88 2801.13 1844.84 2802.28 1843.96C2803.43 1843.09 2804.79 1842.41 2806.37 1841.93C2807.96 1841.44 2809.69 1841.2 2811.57 1841.2C2813.6 1841.2 2815.43 1841.51 2817.05 1842.11C2818.68 1842.71 2820.07 1843.52 2821.21 1844.56C2822.36 1845.6 2823.24 1846.81 2823.85 1848.2C2824.48 1849.6 2824.79 1851.09 2824.79 1852.69H2821.51C2821.51 1851.44 2821.29 1850.28 2820.85 1849.21C2820.4 1848.16 2819.76 1847.24 2818.92 1846.45C2818.08 1845.68 2817.04 1845.08 2815.8 1844.64C2814.57 1844.2 2813.16 1843.97 2811.57 1843.97C2810 1843.97 2808.6 1844.17 2807.39 1844.55C2806.19 1844.92 2805.19 1845.44 2804.39 1846.08C2803.59 1846.72 2802.97 1847.47 2802.56 1848.33C2802.15 1849.2 2801.95 1850.11 2801.95 1851.08C2801.95 1852 2802.11 1852.84 2802.45 1853.61C2802.8 1854.39 2803.37 1855.11 2804.19 1855.77C2805 1856.43 2806.05 1857.04 2807.39 1857.61C2808.71 1858.19 2810.33 1858.73 2812.27 1859.24C2814.29 1859.8 2816.09 1860.41 2817.68 1861.09C2819.27 1861.76 2820.6 1862.55 2821.69 1863.45C2822.79 1864.36 2823.61 1865.4 2824.17 1866.59C2824.73 1867.76 2825.01 1869.12 2825.01 1870.67C2825.01 1872.24 2824.69 1873.64 2824.03 1874.88C2823.37 1876.12 2822.45 1877.17 2821.28 1878.04C2820.11 1878.91 2818.72 1879.56 2817.09 1880.03C2815.48 1880.48 2813.72 1880.71 2811.81 1880.71C2810.67 1880.71 2809.52 1880.61 2808.37 1880.41C2807.21 1880.23 2806.11 1879.93 2805.04 1879.53C2803.97 1879.13 2802.99 1878.63 2802.05 1878.01C2801.13 1877.4 2800.33 1876.67 2799.65 1875.81C2798.97 1874.96 2798.44 1873.97 2798.04 1872.88C2797.65 1871.77 2797.45 1870.55 2797.45 1869.2H2800.69C2800.69 1870.81 2801.04 1872.19 2801.71 1873.31C2802.37 1874.41 2803.24 1875.32 2804.29 1876.01C2805.35 1876.69 2806.53 1877.19 2807.85 1877.51C2809.17 1877.81 2810.49 1877.96 2811.81 1877.96C2813.31 1877.96 2814.67 1877.79 2815.89 1877.44C2817.12 1877.11 2818.17 1876.61 2819.04 1875.99C2819.91 1875.35 2820.57 1874.59 2821.04 1873.69C2821.51 1872.81 2821.75 1871.81 2821.75 1870.72" fill="#699DEE"/>
<path d="M2849.65 1876.56C2848.76 1877.87 2847.56 1878.88 2846.08 1879.61C2844.59 1880.35 2842.75 1880.71 2840.55 1880.71C2839.13 1880.71 2837.87 1880.51 2836.72 1880.11C2835.57 1879.72 2834.59 1879.09 2833.76 1878.23C2832.93 1877.36 2832.29 1876.25 2831.84 1874.88C2831.4 1873.52 2831.17 1871.87 2831.17 1869.91V1851.61H2834.32V1869.96C2834.32 1871.49 2834.49 1872.77 2834.84 1873.79C2835.2 1874.81 2835.67 1875.63 2836.27 1876.24C2836.87 1876.87 2837.56 1877.31 2838.37 1877.56C2839.17 1877.83 2840.01 1877.96 2840.92 1877.96C2842.19 1877.96 2843.31 1877.83 2844.27 1877.53C2845.24 1877.25 2846.07 1876.87 2846.77 1876.35C2847.48 1875.84 2848.07 1875.24 2848.52 1874.56C2848.97 1873.87 2849.33 1873.11 2849.6 1872.28V1851.61H2852.77V1880.17H2849.71L2849.65 1876.56" fill="#699DEE"/>
<path d="M2862.92 1866.19C2862.92 1867.85 2863.08 1869.41 2863.41 1870.84C2863.75 1872.28 2864.25 1873.52 2864.95 1874.59C2865.63 1875.64 2866.49 1876.47 2867.55 1877.07C2868.6 1877.67 2869.84 1877.96 2871.28 1877.96C2872.37 1877.96 2873.36 1877.83 2874.23 1877.56C2875.09 1877.31 2875.87 1876.93 2876.53 1876.47C2877.21 1876 2877.79 1875.45 2878.28 1874.81C2878.77 1874.19 2879.2 1873.49 2879.55 1872.73V1859.45C2879.25 1858.71 2878.87 1858 2878.4 1857.32C2877.93 1856.65 2877.37 1856.05 2876.71 1855.53C2876.05 1855.01 2875.28 1854.6 2874.4 1854.29C2873.52 1853.99 2872.49 1853.83 2871.33 1853.83C2869.88 1853.83 2868.61 1854.13 2867.56 1854.73C2866.51 1855.35 2865.63 1856.17 2864.95 1857.23C2864.25 1858.29 2863.75 1859.53 2863.41 1860.99C2863.08 1862.43 2862.92 1863.97 2862.92 1865.63V1866.19ZM2859.72 1865.63C2859.72 1863.41 2859.97 1861.41 2860.47 1859.63C2860.97 1857.84 2861.69 1856.31 2862.65 1855.04C2863.6 1853.77 2864.76 1852.8 2866.12 1852.11C2867.48 1851.43 2869.03 1851.08 2870.76 1851.08C2872.8 1851.08 2874.55 1851.49 2876.01 1852.31C2877.47 1853.13 2878.68 1854.27 2879.63 1855.73L2879.79 1851.61H2882.75V1879.68C2882.75 1881.53 2882.47 1883.19 2881.92 1884.65C2881.39 1886.12 2880.61 1887.37 2879.61 1888.39C2878.61 1889.41 2877.41 1890.2 2876.01 1890.75C2874.6 1891.29 2873.03 1891.56 2871.28 1891.56C2870.39 1891.56 2869.47 1891.45 2868.53 1891.25C2867.6 1891.05 2866.71 1890.75 2865.83 1890.35C2864.96 1889.95 2864.13 1889.44 2863.36 1888.83C2862.59 1888.23 2861.91 1887.51 2861.33 1886.68L2863.09 1884.77C2864.25 1886.2 2865.49 1887.24 2866.8 1887.91C2868.09 1888.56 2869.52 1888.89 2871.07 1888.89C2872.43 1888.89 2873.63 1888.68 2874.68 1888.28C2875.72 1887.85 2876.61 1887.27 2877.33 1886.48C2878.05 1885.69 2878.6 1884.75 2878.99 1883.63C2879.36 1882.51 2879.55 1881.24 2879.55 1879.81V1876.48C2878.6 1877.8 2877.39 1878.84 2875.93 1879.59C2874.47 1880.33 2872.72 1880.71 2870.71 1880.71C2869 1880.71 2867.47 1880.35 2866.11 1879.64C2864.75 1878.92 2863.6 1877.93 2862.65 1876.65C2861.69 1875.37 2860.97 1873.85 2860.47 1872.07C2859.97 1870.29 2859.72 1868.33 2859.72 1866.19V1865.63" fill="#699DEE"/>
<path d="M2899.09 1877.91C2900.23 1877.91 2901.29 1877.76 2902.27 1877.48C2903.25 1877.19 2904.13 1876.79 2904.92 1876.27C2905.72 1875.76 2906.4 1875.17 2906.99 1874.49C2907.56 1873.81 2908.03 1873.08 2908.39 1872.28V1866H2902.97C2901.35 1866 2899.91 1866.15 2898.63 1866.44C2897.35 1866.72 2896.27 1867.15 2895.39 1867.69C2894.51 1868.24 2893.84 1868.91 2893.37 1869.68C2892.91 1870.47 2892.67 1871.35 2892.67 1872.33C2892.67 1873.11 2892.83 1873.84 2893.12 1874.52C2893.43 1875.2 2893.84 1875.79 2894.4 1876.28C2894.96 1876.79 2895.63 1877.19 2896.43 1877.48C2897.21 1877.76 2898.11 1877.91 2899.09 1877.91V1877.91ZM2909.01 1880.17C2908.84 1879.69 2908.71 1879.08 2908.61 1878.37C2908.51 1877.65 2908.44 1876.93 2908.41 1876.19C2907.93 1876.81 2907.37 1877.39 2906.72 1877.93C2906.07 1878.48 2905.33 1878.96 2904.53 1879.36C2903.72 1879.77 2902.83 1880.09 2901.87 1880.33C2900.89 1880.59 2899.84 1880.71 2898.72 1880.71C2897.33 1880.71 2896.07 1880.51 2894.93 1880.11C2893.8 1879.69 2892.83 1879.13 2892.03 1878.4C2891.23 1877.67 2890.6 1876.81 2890.16 1875.83C2889.72 1874.84 2889.51 1873.76 2889.51 1872.6C2889.51 1871.21 2889.8 1869.96 2890.4 1868.84C2891 1867.72 2891.87 1866.77 2892.99 1865.99C2894.12 1865.2 2895.48 1864.6 2897.09 1864.19C2898.71 1863.77 2900.51 1863.57 2902.52 1863.57H2908.39V1860.32C2908.39 1858.28 2907.76 1856.68 2906.49 1855.51C2905.24 1854.33 2903.4 1853.75 2900.99 1853.75C2899.88 1853.75 2898.85 1853.89 2897.93 1854.2C2896.99 1854.49 2896.19 1854.91 2895.51 1855.44C2894.83 1855.96 2894.31 1856.57 2893.93 1857.27C2893.55 1857.97 2893.36 1858.71 2893.36 1859.51L2890.19 1859.48C2890.19 1858.4 2890.45 1857.36 2890.99 1856.36C2891.51 1855.36 2892.25 1854.47 2893.21 1853.68C2894.17 1852.89 2895.32 1852.27 2896.67 1851.79C2898.01 1851.32 2899.51 1851.08 2901.15 1851.08C2902.67 1851.08 2904.05 1851.28 2905.33 1851.67C2906.61 1852.05 2907.71 1852.63 2908.61 1853.4C2909.53 1854.17 2910.25 1855.15 2910.76 1856.31C2911.27 1857.47 2911.52 1858.83 2911.52 1860.37V1874.21C2911.52 1874.71 2911.55 1875.21 2911.57 1875.75C2911.61 1876.27 2911.67 1876.79 2911.75 1877.28C2911.83 1877.77 2911.92 1878.24 2912.03 1878.69C2912.13 1879.13 2912.25 1879.53 2912.4 1879.87V1880.17H2909.01" fill="#699DEE"/>
<path d="M2933.15 1854.31C2932.48 1854.17 2931.77 1854.12 2931.01 1854.12C2929.95 1854.12 2928.97 1854.28 2928.11 1854.59C2927.24 1854.91 2926.48 1855.36 2925.83 1855.92C2925.16 1856.49 2924.61 1857.17 2924.16 1857.96C2923.71 1858.75 2923.36 1859.61 2923.09 1860.56V1880.17H2919.95V1851.61H2923.04L2923.09 1856.15C2923.87 1854.59 2924.92 1853.35 2926.25 1852.44C2927.57 1851.53 2929.21 1851.08 2931.15 1851.08C2931.53 1851.08 2931.93 1851.12 2932.33 1851.19C2932.73 1851.25 2933.04 1851.33 2933.23 1851.43L2933.15 1854.31" fill="#699DEE"/>
<path d="M2836.29 1951.28C2836.29 1937.03 2829.33 1926.25 2819 1926.25C2808.68 1926.25 2801.95 1936.69 2801.95 1951.28C2801.95 1965.65 2808.79 1976.32 2819.23 1976.32C2829.67 1976.32 2836.29 1965.76 2836.29 1951.28V1951.28ZM2784.2 1951.28C2784.2 1928.49 2798.35 1910.64 2819.23 1910.64C2840 1910.64 2854.03 1928.27 2854.03 1951.28C2854.03 1974.07 2840 1991.92 2819 1991.92C2798.01 1991.92 2784.2 1974.29 2784.2 1951.28Z" fill="#699DEE"/>
<path d="M2920.6 1975.97C2920.6 1971.88 2918.33 1968.31 2914.85 1968.31C2911.19 1968.31 2909.28 1971.79 2909.28 1975.97C2909.28 1980.07 2911.55 1983.64 2915.03 1983.64C2918.69 1983.64 2920.6 1980.07 2920.6 1975.97ZM2900.13 1975.97C2900.13 1967.35 2906.13 1960.37 2915.03 1960.37C2923.83 1960.37 2929.76 1967.27 2929.76 1975.97C2929.76 1984.52 2923.75 1991.57 2914.85 1991.57C2906.05 1991.57 2900.13 1984.69 2900.13 1975.97ZM2883.13 1944.79C2883.13 1940.68 2880.87 1937.11 2877.39 1937.11C2873.72 1937.11 2871.81 1940.6 2871.81 1944.79C2871.81 1948.88 2874.07 1952.45 2877.56 1952.45C2881.21 1952.45 2883.13 1948.88 2883.13 1944.79ZM2913.28 1929.88H2923.65L2879.12 1990.88H2868.76L2913.28 1929.88ZM2862.65 1944.79C2862.65 1936.16 2868.67 1929.19 2877.56 1929.19C2886.36 1929.19 2892.28 1936.07 2892.28 1944.79C2892.28 1953.32 2886.27 1960.37 2877.39 1960.37C2868.59 1960.37 2862.65 1953.49 2862.65 1944.79Z" fill="#699DEE"/>
<path d="M2149.15 1447.19L2159.99 1456C2159.99 1456 2189.64 1445.36 2196.33 1480.6C2196.33 1480.6 2198.12 1495.61 2188.6 1495.65C2179.09 1495.68 2183.01 1494 2169.55 1494.4C2156.07 1494.8 2144.91 1487.69 2142.93 1476.76L2136.49 1467.49L2149.15 1447.19Z" fill="#EA8E50"/>
<path d="M2147.92 1466.08C2156.57 1457.05 2155.87 1450.39 2155.87 1450.39C2155.87 1450.39 2055.72 1368.39 2045.57 1361.71C2038.65 1357.16 1964.89 1291.77 1930.41 1251.91C1913.32 1232.13 1892.13 1239.81 1867.89 1246.76L1847.93 1252.49C1823.84 1259.4 1817.57 1293.11 1837.35 1309.49C1893.04 1355.61 1985.68 1407.49 2003.01 1418.4C2046.04 1445.47 2130.28 1477.64 2130.28 1477.64C2130.28 1477.64 2140.49 1473.84 2147.92 1466.08" fill="#1E3D70"/>
<path d="M2262.21 1969.84C2262.21 1969.84 2286.51 1988.05 2323.76 1978.43C2323.76 1978.43 2353.77 1971.59 2360.36 1986.56C2360.36 1986.56 2314.32 2009.95 2302.67 2016.35C2293.88 2021.17 2284.72 2028.79 2278.24 2034.67C2273.11 2039.32 2265.12 2038.69 2260.75 2033.32C2258.72 2030.83 2256.4 2027.87 2253.87 2024.41C2246.76 2014.8 2230.23 1983.72 2230.23 1983.72L2262.21 1969.84" fill="#233862"/>
<path d="M2276.48 1960.59C2276.48 1960.59 2261.68 1994.71 2227.52 1988.44C2227.52 1988.44 2157.8 1930.87 2109.99 1871.07C2094.45 1851.64 2081.24 1831.99 2073.47 1814C2041.76 1740.57 1956.17 1631.08 1901.76 1575.59L2037.91 1526.35C2037.91 1526.35 2081.51 1614.05 2139.53 1721.8C2181.33 1799.44 2230.63 1887.47 2276.48 1960.59" fill="#2B478B"/>
<path d="M2139.53 1721.8L2109.99 1871.07C2094.45 1851.64 2081.24 1831.99 2073.47 1814C2041.76 1740.57 1956.17 1631.08 1901.76 1575.59L2037.91 1526.35C2037.91 1526.35 2081.51 1614.05 2139.53 1721.8Z" fill="#233862"/>
<path d="M2028.25 1989.64C2028.25 1989.64 2026.76 2016.87 2059.77 2020.51C2059.77 2020.51 2078.64 2020.6 2078.69 2037.93L1982.75 2038.24C1982.75 2038.24 1979.96 2031.24 1979.29 2016.28C1978.77 2004.77 1990.44 1974.72 1990.44 1974.72L2028.25 1989.64" fill="#233862"/>
<path d="M1993.25 1526.35C1993.25 1526.35 2053.89 1592.99 2092.4 1713.04C2113.35 1778.36 2054 1942.6 2042.44 1999.67C2042.44 1999.67 2002.63 2003.04 1975.41 1992.52C1975.41 1992.52 1973.35 1874.67 1989.27 1783.83C1998.17 1732.99 1909.41 1675.09 1870.63 1583.23C1844.24 1520.73 1876.33 1521.8 1915.79 1520.29L1993.25 1526.35" fill="#2B478B"/>
<path d="M1923.24 1229.03C1889.49 1248.08 1820.41 1230.51 1820.41 1230.51C1820.41 1230.51 1848.47 1198.44 1835.72 1146.79L1862.21 1160.24L1890.67 1174.69C1890.67 1174.69 1892.51 1183.81 1893.79 1200.2C1894.12 1204.41 1894.41 1209.13 1894.61 1214.28C1911.93 1219.53 1923.24 1229.03 1923.24 1229.03" fill="#FFB07B"/>
<path d="M2046.97 1522.89C2046.97 1528.83 2040.13 1531.67 2038.68 1531.96C2025.08 1534.44 1987.08 1549.23 1952.84 1552.61C1924.01 1555.64 1897.25 1552.77 1867.85 1546.87C1863.96 1546.08 1854.83 1543.61 1854.17 1539.89C1853.36 1535.81 1740.77 1310.36 1828.29 1213.51C1830.35 1211.24 1847.63 1215.33 1863.43 1219.08C1878.03 1222.53 1891.41 1220.61 1903.36 1215.81L1918.17 1223.61C1936.37 1233.75 1970.8 1269.77 1974.84 1298.04C1976.88 1312.41 1985.11 1323.07 1987.48 1335.71C1988.36 1340.39 1989.27 1344.96 1990.19 1349.41C1991.97 1358.15 1993.83 1366.45 1995.73 1374.36C2000.88 1395.73 2006.31 1414.15 2011.64 1430.04C2017.32 1446.92 2022.89 1460.97 2027.87 1472.71C2034.32 1487.95 2039.77 1499.33 2043.19 1508.04C2045.59 1514.19 2046.97 1519 2046.97 1522.89" fill="#2A4E96"/>
<path d="M2043.19 1508.04C1884.24 1433.16 1829.2 1289.37 1829.2 1289.37C1829.2 1289.37 1958.33 1337 1990.19 1349.41C1991.97 1358.15 1993.83 1366.45 1995.73 1374.36C2000.88 1395.73 2006.31 1414.15 2011.64 1430.04C2017.32 1446.92 2022.89 1460.97 2027.87 1472.71C2034.32 1487.95 2039.77 1499.33 2043.19 1508.04" fill="#1E3D70"/>
<path d="M1893.79 1200.2C1860.61 1202.05 1839.03 1174.67 1839.03 1174.67C1839.03 1174.67 1854.04 1166.35 1862.21 1160.24L1890.67 1174.69C1890.67 1174.69 1892.51 1183.81 1893.79 1200.2" fill="#EA8E50"/>
<path d="M1907.93 1166.13C1907.93 1166.13 1857.65 1202.21 1835.67 1170.56C1813.68 1138.89 1792.39 1122.24 1823.56 1097.87C1854.72 1073.49 1869.41 1081.19 1879.33 1089.97C1889.24 1098.75 1920.44 1155.93 1907.93 1166.13Z" fill="#FFB07B"/>
<path d="M1884.64 1061.37C1882.84 1049.21 1878.77 1040.65 1878.77 1040.65C1878.77 1040.65 1875.63 1053.72 1851.73 1051.92C1827.85 1050.11 1790 1054.27 1777.37 1081.48C1776.57 1083.21 1775.87 1085 1775.23 1086.83C1772.95 1080.79 1772.39 1071.75 1772.39 1071.75C1767.85 1083.47 1772.39 1098.12 1772.39 1098.12C1772.32 1098.55 1772.27 1098.97 1772.2 1099.4C1766.93 1103.85 1762.51 1117.71 1762.51 1117.71C1764.09 1113.85 1767.97 1111.33 1771.44 1109.77C1771.33 1130.95 1779.92 1151.65 1795 1157.83C1817.04 1166.84 1816.87 1159.96 1839.03 1174.67C1839.03 1174.67 1844.97 1167.28 1840.92 1162.33C1836.87 1157.37 1821.55 1150.16 1830.11 1142.95C1838.67 1135.73 1841.83 1143.85 1844.97 1138.89C1848.13 1133.93 1832.36 1119.52 1852.64 1106C1872.92 1092.48 1886.44 1073.55 1884.64 1061.37" fill="#233862"/>
<path d="M2139.53 1489.11C2139.53 1489.11 2166.43 1498.17 2181.92 1497.8C2197.43 1497.43 2224.37 1481.12 2224.43 1479.97C2224.48 1478.83 2212.32 1471.8 2194.67 1474.03C2177.01 1476.25 2173.41 1473.61 2178.91 1471.41C2185.08 1468.95 2189.48 1465.25 2187.97 1462.91C2187.15 1461.6 2178.27 1464.41 2175.25 1465.43C2172.23 1466.43 2164.67 1463.67 2158.37 1468.2C2154.19 1471.23 2138.47 1473.49 2138.47 1473.49L2139.53 1489.11" fill="#FFC299"/>
<path d="M2150.16 1480.37C2154.91 1467 2157.07 1460.93 2157.07 1460.93C2157.07 1460.93 2051.19 1378.99 2040.43 1372C2033.11 1367.24 1960.04 1315.45 1924.01 1274.56C1906.15 1254.27 1878.56 1245.49 1852.25 1251.71L1830.59 1256.83C1804.44 1263 1796.73 1296.51 1817.57 1313.48C1876.27 1361.28 1974.61 1415.96 1992.99 1427.39C2038.59 1455.75 2138.84 1494.57 2138.84 1494.57C2138.84 1494.57 2146.44 1490.87 2150.16 1480.37" fill="#2A4E96"/>
<path d="M1245.48 1350.69C1237.25 1357.96 1215.45 1333 1212.45 1329.68C1212.29 1329.36 1212.13 1329.2 1212.13 1329.2L1218.77 1310.72C1218.77 1310.72 1247.37 1309.61 1252.11 1314.35C1256.85 1319.09 1254.48 1342.95 1245.48 1350.69" fill="#ED985F"/>
<path d="M1218.77 1310.72L1215.93 1329.84C1215.93 1329.84 1214.67 1329.84 1212.45 1329.68C1205.51 1329.2 1188.6 1328.25 1169.48 1326.2C1140.72 1323.36 1106.59 1318.29 1093 1309.92C1072.31 1297.29 1038.33 1258.57 1016.21 1219.87C1015.59 1218.92 1015.11 1217.97 1014.64 1217.03C1003.11 1196.48 995.039 1176.09 994.412 1159.83C993.932 1149.87 995.039 1141.33 997.092 1133.92C999.785 1124.12 1004.21 1116.37 1008.79 1110.53C1009.43 1109.59 1010.05 1108.64 1011 1107.84C1018.59 1098.84 1026.01 1095.05 1026.01 1095.05C1029.8 1093.47 1033.91 1095.36 1038.17 1099.95V1100.11C1041.65 1103.73 1045.44 1109.27 1049.08 1116.21C1049.24 1116.37 1049.4 1116.53 1049.4 1116.69C1050.19 1118.12 1050.97 1119.69 1051.92 1121.43C1052.24 1121.75 1052.4 1122.23 1052.56 1122.53C1054.29 1126.17 1056.03 1129.96 1057.77 1133.92C1077.2 1176.25 1097.91 1240.4 1115.12 1259.52C1122.55 1267.73 1156.52 1283.85 1183.53 1295.87C1202.97 1304.4 1218.77 1310.72 1218.77 1310.72" fill="#ED985F"/>
<path d="M1501.52 1332.73C1500.91 1330.87 1500.27 1329 1499.59 1327.13C1461.84 1222.88 1342.61 1168.49 1237.92 1207.69C1134.12 1246.57 1080.27 1361.07 1117.52 1464.87C1117.69 1465.36 1117.88 1465.85 1118.05 1466.33C1138.11 1520.89 1139.51 1580.35 1122.99 1636.25C1104.53 1698.75 1105.36 1767.4 1129.84 1833.13C1189.59 1993.57 1369.69 2076.13 1532.11 2017.6C1696.07 1958.52 1781.61 1778.87 1723.2 1616.15C1699.35 1549.67 1655.15 1496.29 1600.03 1460.41C1553.56 1430.16 1518.81 1385.24 1501.52 1332.73" fill="#82B378"/>
<path d="M1488.37 1345.03C1487.8 1343.28 1487.19 1341.53 1486.56 1339.79C1451.27 1242.29 1341.24 1190.91 1245.08 1226.95C1149.75 1262.68 1100.77 1369.25 1135.61 1466.31C1135.77 1466.77 1135.95 1467.23 1136.11 1467.68C1154.85 1518.71 1156.45 1574.2 1141.55 1626.28C1124.88 1684.49 1126.01 1748.57 1148.88 1810.04C1204.72 1960.09 1370.95 2038.08 1520.12 1984.32C1670.73 1930.04 1748.52 1762.84 1693.91 1610.67C1671.6 1548.51 1630.64 1498.47 1579.71 1464.69C1536.77 1436.21 1504.56 1394.12 1488.37 1345.03" fill="#CEE085"/>
<path d="M1577.77 1675.77C1605.49 1753.01 1565.36 1838.09 1488.12 1865.83C1483.96 1867.31 1479.8 1868.6 1475.63 1869.71C1401.91 1889.13 1324.29 1849.25 1298.07 1776.17C1280.57 1727.44 1290.09 1675.6 1318.89 1637C1335.75 1614.41 1359.21 1596.35 1387.72 1586.12C1464.96 1558.39 1550.05 1598.53 1577.77 1675.77" fill="#F99746"/>
<path d="M1496.48 1730.51C1513.97 1779.25 1504.45 1831.12 1475.63 1869.71C1401.91 1889.13 1324.29 1849.25 1298.07 1776.17C1280.57 1727.44 1290.09 1675.6 1318.89 1637C1392.61 1617.52 1470.24 1657.4 1496.48 1730.51Z" fill="#ED7D2B"/>
<path d="M1011.81 1999.29L990.932 2007.07C990.932 2007.07 900.251 1881.29 889.086 1770.64C887.091 1750.88 887.756 1731.75 892.07 1714.07C892.07 1714.07 891.183 1709 889.632 1700.05C888.916 1695.88 888.028 1690.85 887.024 1685.09C884.075 1668.2 880.018 1645.08 875.382 1618.76C864.711 1558.2 850.887 1480.79 840.148 1423.87L845.774 1422.07L906.643 1402.43L919.222 1362.47L964.546 1350.53C964.546 1350.53 974.666 1370.35 983.719 1463.91C985.386 1476.17 986.906 1489.72 988.052 1504.39C991.586 1549.19 991.839 1604.75 983.732 1668.28C981.666 1684.55 979.039 1701.33 975.772 1718.59C973.386 1731.23 973.039 1748.47 974.039 1768.25C978.612 1858.71 1011.81 1999.29 1011.81 1999.29" fill="#2B478B"/>
<path d="M988.052 1504.39L889.632 1700.05C888.916 1695.88 888.028 1690.85 887.024 1685.09C884.075 1668.2 880.018 1645.08 875.382 1618.76C864.711 1558.2 850.887 1480.79 840.148 1423.87L845.774 1422.07L906.643 1402.43L919.222 1362.47L964.546 1350.53C964.546 1350.53 974.666 1370.35 983.719 1463.91C985.386 1476.17 986.906 1489.72 988.052 1504.39" fill="#233862"/>
<path d="M944.76 1375.65L942.48 1356.11C904.305 1366.25 802.319 1327.77 802.319 1327.77C802.319 1327.77 765.34 1360.28 770.195 1438.2C772.565 1476.23 776.893 1637.84 781.415 1685.65C783.048 1702.99 784.48 1715.32 785.064 1720.25L785.076 1720.29C785.255 1721.8 784.731 1723.21 783.967 1724.53C777.311 1735.83 771.8 1747.59 767.279 1759.63C722.905 1877.87 774.113 2023.49 774.113 2023.49L787.403 2018.13C787.403 2018.13 816.543 1856.08 840.221 1784.48C844.241 1772.33 848.093 1762.8 851.625 1757.09C861.919 1740.48 871.473 1713.33 880.145 1681.04C896.535 1619.99 909.727 1540.57 918.507 1479.28C919.717 1479.33 944.76 1375.65 944.76 1375.65" fill="#2B478B"/>
<path d="M1017.68 1138.67C1005.69 1144.23 991.226 1148 973.719 1148.96C908.091 1152.56 893.194 1095.03 890.484 1056.85C899.943 1053.43 908.228 1053.75 913 1054C917.654 1054.25 922.512 1054.73 926.518 1055.23C934.546 1051.04 948.972 1030.67 957.306 996.588L960.132 997.908L1007.48 1020.16C1007.48 1020.16 1002.45 1035.57 998.732 1050.32C995.839 1061.85 993.759 1073.01 995.506 1076.12C999.239 1077.64 1001.47 1078.6 1001.47 1078.6L1001.48 1078.65C1001.96 1079.85 1012.25 1106.09 1017.68 1138.67" fill="#FFB27D"/>
<path d="M1034.09 1181.72C1033.6 1183.04 1033.05 1184.32 1032.45 1185.63C1015.84 1221.43 985.067 1369.69 985.067 1369.69C989.453 1396.36 784.719 1364.47 784.191 1340.19C776.98 1314.45 809.775 1273.11 828.269 1252.36C830.587 1249.75 832.667 1246.96 834.473 1244C839.041 1236.61 841.94 1228.25 842.86 1219.53C846.492 1185.12 845.111 1152.88 845.416 1133.27H845.417C849.031 1130.59 852.525 1128.12 855.78 1125.76C860.757 1122.13 865.155 1118.73 868.393 1115.29C871.956 1111.55 874.189 1107.71 874.444 1103.39C874.633 1100.11 874.529 1096.75 874.189 1093.39C874.036 1091.81 873.832 1090.23 873.592 1088.64C871.036 1071.99 864.081 1056.88 864.081 1056.88C881.689 1049.76 913.001 1054 913.001 1054C913.001 1054 912.968 1055.75 912.951 1058.59C912.848 1070.03 912.951 1099.39 916.615 1104.95C921.2 1111.87 1005.08 1142.2 1009.51 1132.8C1013.88 1123.56 1001.93 1080.28 1001.48 1078.65L1001.47 1078.6C1029.56 1089.63 1039.6 1098.88 1039.6 1098.88C1022.67 1109.85 1047.19 1147 1034.09 1181.72" fill="#F99746"/>
<path d="M977.585 872.427C977.492 869.574 975.279 838.921 928.585 837.321C928.585 837.321 951.545 840.054 955.519 850.147C955.519 850.147 939.879 837.681 927.148 841.694C914.415 845.707 906.936 868.014 906.86 875.347C906.785 882.681 913.86 906.347 921.941 908.347C925.003 909.121 928.528 908.907 931.729 908.361C929.58 911.721 927.472 915.427 925.457 919.561C906.824 957.814 926.04 995.187 941.812 991.067C951.932 988.414 954.799 1005.68 954.799 1005.68L1053.09 926.107C1053.09 926.107 1016.99 851.401 977.585 872.427" fill="#2C3A64"/>
<path d="M1007.48 1020.17C1007.48 1020.17 1002.45 1035.57 998.746 1050.33C971.066 1042.61 962.653 1013.51 960.133 997.921L1007.48 1020.17Z" fill="#ED985F"/>
<path d="M1013.31 1036.48C1013.31 1036.48 947.093 1021.15 957.266 980.054C967.453 938.974 965.759 909.321 1008.47 917.361C1051.17 925.414 1055.48 943.121 1055.41 957.654C1055.36 972.201 1030.8 1039.4 1013.31 1036.48" fill="#FFB27D"/>
<path d="M1059.15 934.334C1052.03 919.441 1043.64 920.228 1038.4 922.881C1007.29 894.081 976.772 917.601 976.772 917.601C965.025 945.988 939.559 957.574 939.559 957.574C939.559 957.574 949.732 967.988 979.225 967.761C988.225 967.694 997.279 963.561 1005.52 957.868C989.625 973.868 970.999 983.614 970.999 983.614C1007.91 976.548 1032.65 933.814 1035.19 929.281C1038.32 933.894 1044.29 943.734 1044.8 952.028C1045.48 963.308 1041.6 985.214 1048.05 986.041C1048.05 986.041 1069.81 956.668 1059.15 934.334Z" fill="#2C3A64"/>
<path d="M1039.6 1098.88C1039.6 1098.88 1055.55 1126.69 1057.93 1133.84C1057.93 1133.84 1037.25 1133.05 1028.91 1148.96C1028.91 1148.96 1026.91 1102.63 1039.6 1098.88Z" fill="#F99746"/>
<path d="M929.943 1319.88C889.563 1319.45 855.37 1277.52 834.473 1244C839.041 1236.61 841.939 1228.25 842.859 1219.53C846.491 1185.12 845.11 1152.88 845.415 1133.27H845.417C849.03 1130.59 852.525 1128.12 855.779 1125.76C860.757 1122.13 865.154 1118.73 868.393 1115.29C901.462 1171.19 984.693 1320.45 929.943 1319.88" fill="#ED7D2B"/>
<path d="M1146.33 1359.37C1142.83 1362.07 1114.81 1373.01 1104.15 1369.67C1098.19 1367.79 1077.45 1362.65 1069.08 1360.6C1065.76 1359.97 1053.83 1357.64 1053.83 1357.64L1062.83 1331.41C1062.83 1331.41 1063.17 1331.47 1063.93 1331.73C1067.36 1332.92 1073.95 1336.17 1082.57 1337.47C1093.21 1339.05 1106.48 1332.37 1113.39 1336.16C1128 1344.17 1148.17 1336.04 1152.83 1340.31C1156.32 1343.53 1155.07 1352.69 1146.33 1359.37" fill="#FFB27D"/>
<path d="M1082.57 1341.84L1077.04 1362.07C1077.04 1362.07 1070.09 1360.8 1059.04 1358.75C1055.72 1358.12 1053.83 1357.64 1053.83 1357.64C1044.97 1355.91 1034.39 1353.53 1022.85 1351H1022.69C1002.95 1346.27 980.825 1340.57 962.185 1334.25C949.065 1329.68 937.689 1324.77 929.947 1319.88C929.157 1319.4 928.527 1318.93 927.735 1318.29C909.249 1304.87 887.287 1265.37 870.224 1223.03C867.854 1217.17 865.642 1211.33 863.43 1205.64C855.528 1184.47 849.209 1163.61 845.417 1145.6C843.048 1134.87 841.468 1125.07 841.152 1117C840.994 1114.16 840.835 1111.48 840.993 1108.95C841.309 1063.13 864.061 1056.81 864.061 1056.81C864.535 1056.65 865.009 1056.49 865.641 1056.33C869.591 1055.71 873.699 1058.39 877.965 1063.6C883.337 1070.08 889.027 1080.67 894.872 1093.47C903.877 1113.85 913.357 1140.24 922.205 1166.47C927.104 1180.84 931.843 1195.21 936.583 1208.49C939.269 1216.55 941.959 1224.13 944.479 1231.08C949.385 1244.36 953.799 1255.09 957.759 1261.89C960.279 1266.32 967.545 1272.48 977.185 1279.43C993.932 1291.6 1018.43 1306.29 1039.76 1318.29C1048.61 1323.36 1056.97 1327.93 1063.93 1331.73C1075.15 1337.89 1082.57 1341.84 1082.57 1341.84" fill="#FFB27D"/>
<path d="M894.817 1093.53C864.4 1085.15 840.938 1108.89 840.938 1108.89C841.319 1063.15 864.089 1056.89 864.089 1056.89C873.251 1053.09 883.867 1068.96 894.817 1093.53" fill="#F99746"/>
<path d="M851.37 2034.35H746.216C746.216 2034.35 743.696 2018.32 749.189 2006.16C754.45 1994.49 762.694 1989.19 760.721 1975.08C767.402 1981.96 778.293 1989.67 793.496 1987.61C795.357 1990.64 805.518 2006.8 811.741 2011.27C818.612 2016.2 849.254 2014.44 851.37 2034.35" fill="#233862"/>
<path d="M1077.15 2034.35H972C972 2034.35 968.067 2017.57 974.973 2006.16C981.08 1996.07 978.733 1990.31 974.213 1981.96C978.973 1983.91 985.133 1985.68 991.92 1985.29C997.16 1984.99 1002.71 1982.61 1007.56 1979.79C1012.09 1984.95 1031.47 2006.92 1037.52 2011.27C1044.4 2016.2 1075.04 2014.44 1077.15 2034.35" fill="#233862"/>
<path d="M1087.97 1340.15C1087.97 1340.15 1096.97 1334.28 1110.23 1329.84C1118.51 1327.05 1129.35 1324.05 1129.01 1327.07C1128.67 1330.08 1111.57 1338.13 1111.24 1339.48C1110.89 1340.81 1087.97 1340.15 1087.97 1340.15Z" fill="#FFB27D"/>
<path d="M1663.39 1741C1733.77 1691.47 1797.25 1732.12 1846.79 1802.52C1896.32 1872.91 1909.16 1948.68 1838.76 1998.21C1768.37 2047.75 1604.11 2046.15 1569.81 1997.41C1542.79 1958.99 1592.99 1790.53 1663.39 1741Z" fill="#F77D48"/>
<path d="M1751.71 1756.55C1749.17 1758.32 1740.21 1757.8 1740.21 1757.8C1740.21 1757.8 1742.75 1749.19 1745.27 1747.4C1747.79 1745.63 1751.28 1746.24 1753.05 1748.76C1754.83 1751.28 1754.23 1754.77 1751.71 1756.55" fill="#FBBEA3"/>
<path d="M1749.72 1788.56C1747.2 1790.33 1738.24 1789.81 1738.24 1789.81C1738.24 1789.81 1740.77 1781.2 1743.29 1779.43C1745.81 1777.65 1749.31 1778.25 1751.08 1780.77C1752.85 1783.31 1752.25 1786.79 1749.72 1788.56" fill="#FBBEA3"/>
<path d="M1784.08 1802.56C1781.56 1804.33 1772.59 1803.81 1772.59 1803.81C1772.59 1803.81 1775.12 1795.2 1777.65 1793.43C1780.17 1791.64 1783.65 1792.25 1785.44 1794.77C1787.21 1797.29 1786.6 1800.79 1784.08 1802.56" fill="#FBBEA3"/>
<path d="M1793.07 1850.16C1790.55 1851.93 1781.59 1851.41 1781.59 1851.41C1781.59 1851.41 1784.12 1842.8 1786.64 1841.03C1789.16 1839.24 1792.65 1839.85 1794.43 1842.37C1796.2 1844.89 1795.6 1848.39 1793.07 1850.16Z" fill="#FBBEA3"/>
<path d="M1825.8 1866.75C1823.27 1868.52 1814.31 1868 1814.31 1868C1814.31 1868 1816.84 1859.39 1819.36 1857.6C1821.89 1855.83 1825.37 1856.44 1827.15 1858.96C1828.92 1861.48 1828.32 1864.97 1825.8 1866.75" fill="#FBBEA3"/>
<path d="M1832.44 1906.12C1829.92 1907.89 1820.96 1907.37 1820.96 1907.37C1820.96 1907.37 1823.49 1898.76 1826.01 1896.99C1828.53 1895.21 1832.03 1895.81 1833.8 1898.33C1835.57 1900.87 1834.97 1904.35 1832.44 1906.12" fill="#FBBEA3"/>
<path d="M1861.84 1917.96C1859.31 1919.73 1850.35 1919.21 1850.35 1919.21C1850.35 1919.21 1852.88 1910.6 1855.4 1908.83C1857.92 1907.04 1861.41 1907.65 1863.19 1910.17C1864.96 1912.69 1864.36 1916.19 1861.84 1917.96" fill="#FBBEA3"/>
<path d="M1694.52 1774.84C1691.51 1776.96 1680.79 1776.33 1680.79 1776.33C1680.79 1776.33 1683.81 1766.04 1686.83 1763.92C1689.85 1761.8 1694.01 1762.52 1696.13 1765.53C1698.25 1768.55 1697.53 1772.72 1694.52 1774.84" fill="#FBBEA3"/>
<path d="M1692.16 1813.09C1689.15 1815.21 1678.43 1814.59 1678.43 1814.59C1678.43 1814.59 1681.45 1804.29 1684.47 1802.17C1687.49 1800.05 1691.65 1800.77 1693.77 1803.8C1695.89 1806.81 1695.17 1810.97 1692.16 1813.09" fill="#FBBEA3"/>
<path d="M1733.2 1829.83C1730.19 1831.95 1719.48 1831.32 1719.48 1831.32C1719.48 1831.32 1722.51 1821.03 1725.52 1818.89C1728.53 1816.77 1732.69 1817.51 1734.83 1820.52C1736.95 1823.53 1736.21 1827.69 1733.2 1829.83" fill="#FBBEA3"/>
<path d="M1743.95 1886.69C1740.93 1888.81 1730.21 1888.19 1730.21 1888.19C1730.21 1888.19 1733.24 1877.89 1736.27 1875.77C1739.28 1873.65 1743.44 1874.37 1745.56 1877.39C1747.68 1880.41 1746.96 1884.57 1743.95 1886.69Z" fill="#FBBEA3"/>
<path d="M1783.05 1906.51C1780.03 1908.63 1769.32 1908 1769.32 1908C1769.32 1908 1772.35 1897.71 1775.36 1895.59C1778.39 1893.47 1782.55 1894.19 1784.67 1897.21C1786.79 1900.23 1786.07 1904.39 1783.05 1906.51" fill="#FBBEA3"/>
<path d="M1791 1953.56C1787.99 1955.68 1777.27 1955.05 1777.27 1955.05C1777.27 1955.05 1780.29 1944.76 1783.31 1942.64C1786.33 1940.52 1790.49 1941.24 1792.61 1944.25C1794.73 1947.28 1794.01 1951.44 1791 1953.56Z" fill="#FBBEA3"/>
<path d="M1826.11 1967.71C1823.09 1969.83 1812.39 1969.2 1812.39 1969.2C1812.39 1969.2 1815.41 1958.91 1818.43 1956.79C1821.44 1954.67 1825.6 1955.39 1827.72 1958.4C1829.85 1961.41 1829.12 1965.59 1826.11 1967.71Z" fill="#FBBEA3"/>
<path d="M1594.31 1905.69C1592.68 1906.84 1586.92 1906.51 1586.92 1906.51C1586.92 1906.51 1588.55 1900.97 1590.17 1899.83C1591.79 1898.68 1594.03 1899.08 1595.17 1900.69C1596.31 1902.32 1595.92 1904.56 1594.31 1905.69Z" fill="#FBBEA3"/>
<path d="M1593.03 1926.27C1591.41 1927.4 1585.65 1927.07 1585.65 1927.07C1585.65 1927.07 1587.28 1921.53 1588.91 1920.39C1590.52 1919.25 1592.76 1919.64 1593.91 1921.27C1595.04 1922.88 1594.65 1925.12 1593.03 1926.27Z" fill="#FBBEA3"/>
<path d="M1615.09 1935.25C1613.48 1936.4 1607.72 1936.05 1607.72 1936.05C1607.72 1936.05 1609.35 1930.52 1610.97 1929.39C1612.59 1928.24 1614.83 1928.63 1615.97 1930.25C1617.11 1931.88 1616.72 1934.11 1615.09 1935.25Z" fill="#FBBEA3"/>
<path d="M1620.87 1965.83C1619.25 1966.97 1613.49 1966.63 1613.49 1966.63C1613.49 1966.63 1615.12 1961.09 1616.75 1959.96C1618.36 1958.81 1620.6 1959.2 1621.75 1960.83C1622.88 1962.45 1622.49 1964.69 1620.87 1965.83Z" fill="#FBBEA3"/>
<path d="M1641.89 1976.48C1640.27 1977.61 1634.51 1977.28 1634.51 1977.28C1634.51 1977.28 1636.15 1971.75 1637.76 1970.61C1639.39 1969.47 1641.63 1969.85 1642.76 1971.48C1643.91 1973.09 1643.52 1975.33 1641.89 1976.48Z" fill="#FBBEA3"/>
<path d="M1646.16 2001.77C1644.55 2002.92 1638.79 2002.57 1638.79 2002.57C1638.79 2002.57 1640.41 1997.04 1642.04 1995.91C1643.65 1994.76 1645.89 1995.15 1647.04 1996.77C1648.17 1998.39 1647.79 2000.63 1646.16 2001.77Z" fill="#FBBEA3"/>
<path d="M1665.04 2009.37C1663.41 2010.52 1657.67 2010.17 1657.67 2010.17C1657.67 2010.17 1659.29 2004.64 1660.91 2003.51C1662.53 2002.36 1664.77 2002.76 1665.91 2004.37C1667.05 2006 1666.67 2008.24 1665.04 2009.37Z" fill="#FBBEA3"/>
<path d="M1621.69 1865.03C1619.59 1866.51 1612.13 1866.07 1612.13 1866.07C1612.13 1866.07 1614.24 1858.91 1616.33 1857.43C1618.44 1855.95 1621.35 1856.45 1622.81 1858.55C1624.29 1860.65 1623.79 1863.55 1621.69 1865.03Z" fill="#FBBEA3"/>
<path d="M1620.05 1891.68C1617.95 1893.16 1610.49 1892.72 1610.49 1892.72C1610.49 1892.72 1612.6 1885.55 1614.69 1884.07C1616.8 1882.6 1619.69 1883.09 1621.17 1885.2C1622.65 1887.29 1622.15 1890.2 1620.05 1891.68Z" fill="#FBBEA3"/>
<path d="M1648.64 1903.33C1646.53 1904.8 1639.08 1904.37 1639.08 1904.37C1639.08 1904.37 1641.19 1897.2 1643.28 1895.72C1645.39 1894.24 1648.29 1894.75 1649.76 1896.85C1651.24 1898.95 1650.75 1901.85 1648.64 1903.33Z" fill="#FBBEA3"/>
<path d="M1656.12 1942.95C1654.03 1944.43 1646.56 1943.99 1646.56 1943.99C1646.56 1943.99 1648.67 1936.81 1650.77 1935.33C1652.87 1933.85 1655.77 1934.36 1657.25 1936.47C1658.73 1938.56 1658.23 1941.47 1656.12 1942.95Z" fill="#FBBEA3"/>
<path d="M1683.36 1956.75C1681.25 1958.23 1673.8 1957.79 1673.8 1957.79C1673.8 1957.79 1675.91 1950.61 1678 1949.13C1680.11 1947.67 1683.01 1948.16 1684.48 1950.27C1685.96 1952.36 1685.45 1955.27 1683.36 1956.75Z" fill="#FBBEA3"/>
<path d="M1688.89 1989.52C1686.8 1991 1679.33 1990.56 1679.33 1990.56C1679.33 1990.56 1681.44 1983.39 1683.55 1981.91C1685.64 1980.44 1688.55 1980.93 1690.03 1983.04C1691.51 1985.13 1691 1988.04 1688.89 1989.52Z" fill="#FBBEA3"/>
<path d="M1713.35 1999.37C1711.25 2000.85 1703.79 2000.41 1703.79 2000.41C1703.79 2000.41 1705.89 1993.24 1708 1991.76C1710.09 1990.28 1713 1990.79 1714.48 1992.89C1715.96 1994.99 1715.45 1997.89 1713.35 1999.37Z" fill="#FBBEA3"/>
<path d="M1652.45 1823.07C1649.91 1824.87 1640.83 1824.33 1640.83 1824.33C1640.83 1824.33 1643.39 1815.61 1645.95 1813.81C1648.51 1812.01 1652.03 1812.63 1653.83 1815.19C1655.63 1817.75 1655.01 1821.28 1652.45 1823.07Z" fill="#FBBEA3"/>
<path d="M1650.47 1855.49C1647.91 1857.29 1638.83 1856.76 1638.83 1856.76C1638.83 1856.76 1641.39 1848.04 1643.95 1846.24C1646.51 1844.44 1650.04 1845.05 1651.83 1847.61C1653.63 1850.17 1653.01 1853.69 1650.47 1855.49Z" fill="#FBBEA3"/>
<path d="M1685.24 1869.67C1682.69 1871.47 1673.61 1870.93 1673.61 1870.93C1673.61 1870.93 1676.17 1862.21 1678.73 1860.41C1681.29 1858.61 1684.81 1859.23 1686.61 1861.79C1688.41 1864.33 1687.8 1867.87 1685.24 1869.67Z" fill="#FBBEA3"/>
<path d="M1694.35 1917.87C1691.8 1919.67 1682.72 1919.13 1682.72 1919.13C1682.72 1919.13 1685.28 1910.41 1687.84 1908.61C1690.39 1906.81 1693.92 1907.43 1695.72 1909.99C1697.52 1912.53 1696.91 1916.07 1694.35 1917.87Z" fill="#FBBEA3"/>
<path d="M1727.49 1934.65C1724.93 1936.45 1715.85 1935.92 1715.85 1935.92C1715.85 1935.92 1718.41 1927.2 1720.97 1925.4C1723.53 1923.6 1727.05 1924.21 1728.85 1926.77C1730.65 1929.33 1730.04 1932.85 1727.49 1934.65Z" fill="#FBBEA3"/>
<path d="M1734.23 1974.53C1731.67 1976.33 1722.59 1975.8 1722.59 1975.8C1722.59 1975.8 1725.16 1967.08 1727.71 1965.28C1730.27 1963.48 1733.8 1964.09 1735.6 1966.65C1737.39 1969.2 1736.77 1972.73 1734.23 1974.53" fill="#FBBEA3"/>
<path d="M1763.97 1986.52C1761.43 1988.32 1752.35 1987.79 1752.35 1987.79C1752.35 1987.79 1754.91 1979.07 1757.47 1977.27C1760.03 1975.47 1763.55 1976.08 1765.35 1978.64C1767.15 1981.19 1766.53 1984.72 1763.97 1986.52Z" fill="#FBBEA3"/>
<path d="M1839.08 1799.15C1839.08 1799.15 1892.51 1756.45 1945.43 1778.2C1945.43 1778.2 1939.95 1784.61 1936.01 1787.37C1932.08 1790.15 1894.49 1770.15 1840.59 1806.32L1839.08 1799.15Z" fill="#649B57"/>
<path d="M1846.05 1797.16C1846.05 1797.16 1830.44 1755.67 1792.95 1745.15C1792.95 1745.15 1817.6 1769.25 1819.68 1776.6C1819.68 1776.6 1809.56 1772.25 1792.91 1781.77C1792.91 1781.77 1820.36 1787.59 1825.85 1803.55C1831.36 1819.52 1827 1849.04 1827 1849.04C1827 1849.04 1849.49 1838.45 1849.55 1826.56C1849.55 1826.56 1870.29 1841.88 1882.05 1872.44C1882.05 1872.44 1877 1825.87 1846.05 1797.16" fill="#649B57"/>
<path d="M3581.12 2042.64H4.68483C2.3635 2042.64 0.464844 2040.75 0.464844 2038.43V2036.6C0.464844 2034.28 2.3635 2032.37 4.68483 2032.37H3581.12C3583.44 2032.37 3585.33 2034.28 3585.33 2036.6V2038.43C3585.33 2040.75 3583.44 2042.64 3581.12 2042.64Z" fill="#2E3552"/>
<path d="M1638.95 1954.41C1638.95 1996.99 1598.05 2031.49 1547.61 2031.49C1497.17 2031.49 1456.28 1996.99 1456.28 1954.41C1456.28 1911.83 1497.17 1877.32 1547.61 1877.32C1598.05 1877.32 1638.95 1911.83 1638.95 1954.41" fill="#2A4E96"/>
<path d="M1608.12 1926.55C1608.12 1937.56 1597.55 1946.48 1584.51 1946.48C1571.47 1946.48 1560.89 1937.56 1560.89 1926.55C1560.89 1915.53 1571.47 1906.61 1584.51 1906.61C1597.55 1906.61 1608.12 1915.53 1608.12 1926.55Z" fill="#4673BC"/>
</svg>
